<svg xmlns="http://www.w3.org/2000/svg" xmlns:xlink="http://www.w3.org/1999/xlink" width="66.74" height="66.9" viewBox="0 0 66.74 66.9"><defs><style>.cls-1{fill:url(#linear-gradient);}.cls-2{fill:url(#linear-gradient-2);}.cls-3{fill:url(#linear-gradient-3);}.cls-4{fill:url(#linear-gradient-4);}.cls-5{fill:url(#linear-gradient-5);}.cls-6{fill:url(#linear-gradient-6);}</style><linearGradient id="linear-gradient" x1="26.53" y1="54.6" x2="26.53" y2="1.98" gradientUnits="userSpaceOnUse"><stop offset="0" stop-color="#97ff9b"/><stop offset="0.51" stop-color="#7ede81"/><stop offset="1" stop-color="#53927d"/></linearGradient><linearGradient id="linear-gradient-2" x1="302.89" y1="940.21" x2="302.89" y2="906.82" gradientTransform="matrix(0.33, 0.94, -0.94, 0.33, 816.11, -550.34)" xlink:href="#linear-gradient"/><linearGradient id="linear-gradient-3" x1="18.22" y1="52.29" x2="35.39" y2="52.29" xlink:href="#linear-gradient"/><linearGradient id="linear-gradient-4" x1="58.77" y1="40.05" x2="58.77" y2="16.27" gradientTransform="matrix(1, 0.03, -0.03, 1, 3.61, -4.72)" gradientUnits="userSpaceOnUse"><stop offset="0" stop-color="#79d5fc"/><stop offset="1" stop-color="#3762fa"/></linearGradient><linearGradient id="linear-gradient-5" x1="10.84" y1="33.51" x2="10.84" y2="8.63" xlink:href="#linear-gradient-4"/><linearGradient id="linear-gradient-6" x1="30.63" y1="70.58" x2="30.63" y2="60.32" xlink:href="#linear-gradient-4"/></defs><g id="Layer_2" data-name="Layer 2"><g id="OBJECTS"><path class="cls-1" d="M39.81,0a13.24,13.24,0,0,0-13,11c-.23.86-.21,6.12-.21,6.13a16.11,16.11,0,0,1-5.1,12.57A14.87,14.87,0,0,1,9.4,34.32v0a9.12,9.12,0,1,0,8.82,8.82h0a14.88,14.88,0,0,1,4.65-12.07c5.69-5.69,11.52-5,12.47-5,0,0,3.75.41,4.45.41A13.25,13.25,0,1,0,39.81,0Z"/><path class="cls-2" d="M66.26,45.15a8.4,8.4,0,0,0-9.32-5.48c-.56,0-3.7,1.17-3.71,1.17a10.21,10.21,0,0,1-8.6-.38,9.47,9.47,0,0,1-5.34-6.24h0a5.79,5.79,0,1,0-3.41,7.14h0a9.42,9.42,0,0,1,8.2.23A9.9,9.9,0,0,1,49.71,48s.55,2.34.7,2.75a8.41,8.41,0,0,0,15.85-5.6Z"/><path class="cls-3" d="M34.58,52.29a5.79,5.79,0,1,1-5.79-5.78A5.79,5.79,0,0,1,34.58,52.29Z"/><path class="cls-4" d="M64.91,37.36h-.06a1.79,1.79,0,0,1-1.73-1.86,28.72,28.72,0,0,0-6.56-19.22A1.8,1.8,0,1,1,59.34,14a32.27,32.27,0,0,1,7.37,21.62A1.8,1.8,0,0,1,64.91,37.36Z"/><path class="cls-5" d="M4.8,28.85a1.61,1.61,0,0,1-.44-.06,1.78,1.78,0,0,1-1.3-2.18A32.42,32.42,0,0,1,22,4.69,1.8,1.8,0,1,1,23.41,8,28.85,28.85,0,0,0,6.54,27.49,1.81,1.81,0,0,1,4.8,28.85Z"/><path class="cls-6" d="M34.4,66.9l-1.06,0a32.42,32.42,0,0,1-19.93-7.72,1.8,1.8,0,1,1,2.34-2.73,28.77,28.77,0,0,0,33.09,3,1.79,1.79,0,1,1,1.81,3.1A32.19,32.19,0,0,1,34.4,66.9Z"/></g></g></svg>