<?xml version="1.0" encoding="UTF-8" standalone="no"?>
<svg
   xmlns:dc="http://purl.org/dc/elements/1.1/"
   xmlns:cc="http://creativecommons.org/ns#"
   xmlns:rdf="http://www.w3.org/1999/02/22-rdf-syntax-ns#"
   xmlns:svg="http://www.w3.org/2000/svg"
   xmlns="http://www.w3.org/2000/svg"
   xmlns:sodipodi="http://sodipodi.sourceforge.net/DTD/sodipodi-0.dtd"
   xmlns:inkscape="http://www.inkscape.org/namespaces/inkscape"
   version="1.1"
   id="svg2"
   xml:space="preserve"
   width="3555.5601"
   height="2666.6667"
   viewBox="0 0 3555.5601 2666.6667"
   sodipodi:docname="5775.eps"><metadata
     id="metadata8"><rdf:RDF><cc:Work
         rdf:about=""><dc:format>image/svg+xml</dc:format><dc:type
           rdf:resource="http://purl.org/dc/dcmitype/StillImage" /></cc:Work></rdf:RDF></metadata><defs
     id="defs6" /><sodipodi:namedview
     pagecolor="#ffffff"
     bordercolor="#666666"
     borderopacity="1"
     objecttolerance="10"
     gridtolerance="10"
     guidetolerance="10"
     inkscape:pageopacity="0"
     inkscape:pageshadow="2"
     inkscape:window-width="640"
     inkscape:window-height="480"
     id="namedview4" /><g
     id="g10"
     inkscape:groupmode="layer"
     inkscape:label="ink_ext_XXXXXX"
     transform="matrix(1.3333333,0,0,-1.3333333,0,2666.6667)"><g
       id="g12"
       transform="scale(0.1)"><path
         d="M 26666.7,0 H 0 V 20000 H 26666.7 V 0"
         style="fill:#ffffff;fill-opacity:1;fill-rule:nonzero;stroke:none"
         id="path14" /><path
         d="M 4016.56,589 C 2200.73,2566.2 -280.996,4607.7 692.148,7691.5 c 640.082,2028.4 2209.472,2593.8 3514.002,3844.6 643.8,617.2 238.88,1515.7 226.93,2407.5 -27.29,2283.6 2521.27,4055.7 4864.31,4018.7 2537.91,-40.1 3636.51,-2591.6 5765.41,-2728.4 836,-12.8 1584.5,477.8 2324.2,867.5 2191.5,1154.8 5669.1,418.4 5844.8,-2374.2 45.4,-1508.2 -1671.1,-3934.5 48.7,-4727.7 1370.6,-632.2 2755.2,-865 3002.3,-3126.1 C 26606.1,2913.9 24896.9,1289.6 22669.7,528 L 4016.56,589"
         style="fill:#e3eaff;fill-opacity:1;fill-rule:nonzero;stroke:none"
         id="path16" /><path
         d="m 5204.06,11843.5 h 2526.8 c 312.77,0 566.32,-253.6 566.32,-566.3 v -1177.9 c 0,-312.8 -253.55,-566.4 -566.32,-566.4 h -18.76 l 202.81,-679.4 c 8.92,-29.8 -25.6,-53.7 -50.4,-34.8 L 6928.3,9532.9 H 5204.06 c -312.77,0 -566.32,253.6 -566.32,566.4 v 1177.9 c 0,312.7 253.55,566.3 566.32,566.3"
         style="fill:#ffffff;fill-opacity:1;fill-rule:nonzero;stroke:none"
         id="path18" /><path
         d="M 7729.68,10854.4 H 5303.73 c -154.81,0 -280.32,125.5 -280.32,280.3 v 0 c 0,154.8 125.51,280.3 280.32,280.3 h 2425.95 c 154.81,0 280.31,-125.5 280.31,-280.3 v 0 c 0,-154.8 -125.5,-280.3 -280.31,-280.3"
         style="fill:#e3eaff;fill-opacity:1;fill-rule:nonzero;stroke:none"
         id="path20" /><path
         d="M 7729.68,9998.3 H 5303.73 c -154.81,0 -280.32,125.5 -280.32,280.3 v 0 c 0,154.8 125.51,280.4 280.32,280.4 h 2425.95 c 154.81,0 280.31,-125.6 280.31,-280.4 v 0 c 0,-154.8 -125.5,-280.3 -280.31,-280.3"
         style="fill:#e3eaff;fill-opacity:1;fill-rule:nonzero;stroke:none"
         id="path22" /><path
         d="M 20667.6,15023 H 17912 c -341.1,0 -617.6,-276.5 -617.6,-617.6 v -1284.6 c 0,-341.1 276.5,-617.6 617.6,-617.6 h 20.5 l -221.2,-740.9 c -9.7,-32.6 27.9,-58.6 55,-38 l 1021,778.9 h 1880.3 c 341.1,0 617.6,276.5 617.6,617.6 v 1284.6 c 0,341.1 -276.5,617.6 -617.6,617.6"
         style="fill:#ffffff;fill-opacity:1;fill-rule:nonzero;stroke:none"
         id="path24" /><path
         d="m 20644.4,13937.3 h -2774.6 c -137.6,0 -249.1,111.6 -249.1,249.2 v 62.3 c 0,137.6 111.5,249.1 249.1,249.1 h 2774.6 c 137.6,0 249.1,-111.5 249.1,-249.1 v -62.3 c 0,-137.6 -111.5,-249.2 -249.1,-249.2"
         style="fill:#e3eaff;fill-opacity:1;fill-rule:nonzero;stroke:none"
         id="path26" /><path
         d="m 19290,13089.7 h -1299.2 c -154.8,0 -280.3,125.5 -280.3,280.3 v 0 c 0,154.8 125.5,280.3 280.3,280.3 H 19290 c 154.8,0 280.3,-125.5 280.3,-280.3 v 0 c 0,-154.8 -125.5,-280.3 -280.3,-280.3"
         style="fill:#e3eaff;fill-opacity:1;fill-rule:nonzero;stroke:none"
         id="path28" /><path
         d="m 2596.35,3956.9 c -141.59,0 -236.76,106.7 -236.76,236.7 0,111.4 95.17,218.2 236.76,218.2 123.03,0 218.2,-106.8 218.2,-218.2 0,-127.6 -90.53,-236.7 -218.2,-236.7 z m -318.01,1548.2 c 104.46,78.9 229.81,118.4 376.04,118.4 315.69,0 482.82,-171.8 482.82,-413.2 0,-139.2 -67.32,-280.8 -204.27,-422.4 -174.09,-183.4 -299.44,-273.9 -378.36,-273.9 -76.6,0 -132.31,60.3 -132.31,132.3 0,65 60.35,130 164.81,225.1 6.96,7 13.93,14 18.57,16.3 118.38,109.1 155.52,169.4 155.52,243.7 0,92.8 -62.67,143.9 -153.2,143.9 -41.78,0 -90.53,-9.3 -148.56,-27.8 -58.03,-18.6 -99.81,-27.9 -125.35,-27.9 -64.99,0 -139.27,55.7 -139.27,148.6 0,48.7 27.86,95.1 83.56,136.9"
         style="fill:#ffffff;fill-opacity:1;fill-rule:nonzero;stroke:none"
         id="path30" /><path
         d="m 21451,9695.7 c -93.2,0 -155.7,70.2 -155.7,155.6 0,73.3 62.5,143.5 155.7,143.5 80.9,0 143.5,-70.2 143.5,-143.5 0,-83.9 -59.6,-155.6 -143.5,-155.6 z m -209.2,1018.1 c 68.7,51.9 151.2,77.9 247.3,77.9 207.6,0 317.5,-113 317.5,-271.7 0,-91.6 -44.2,-184.7 -134.3,-277.9 -114.5,-120.6 -196.9,-180.1 -248.8,-180.1 -50.4,0 -87,39.7 -87,87 0,42.8 39.7,85.5 108.3,148.1 4.6,4.6 9.2,9.2 12.3,10.7 77.8,71.7 102.2,111.4 102.2,160.3 0,61 -41.2,94.6 -100.7,94.6 -27.5,0 -59.5,-6.1 -97.7,-18.3 -38.2,-12.2 -65.6,-18.3 -82.4,-18.3 -42.8,0 -91.6,36.6 -91.6,97.7 0,32 18.3,62.6 54.9,90"
         style="fill:#ffffff;fill-opacity:1;fill-rule:nonzero;stroke:none"
         id="path32" /><path
         d="m 25807.8,5072.3 h -2898.2 c -51.3,0 -92.8,41.5 -92.8,92.8 v 2494.7 c 0,51.3 41.5,92.8 92.8,92.8 51.2,0 92.8,-41.5 92.8,-92.8 v -2402 h 2805.4 c 51.2,0 92.8,-41.5 92.8,-92.7 0,-51.3 -41.6,-92.8 -92.8,-92.8"
         style="fill:#ffffff;fill-opacity:1;fill-rule:nonzero;stroke:none"
         id="path34" /><path
         d="m 23129,5682.1 c -23.3,0 -46.5,8.7 -64.5,26.1 -36.8,35.6 -37.8,94.3 -2.2,131.2 l 936.7,968.9 c 30.8,31.9 79.9,37.5 117.2,13.4 l 442.9,-287.3 467.1,542.7 c 33.4,38.8 92,43.2 130.9,9.8 38.8,-33.4 43.2,-92 9.8,-130.8 l -520,-604.2 c -30.2,-35.2 -81.8,-42.5 -120.8,-17.3 l -446.8,289.8 -883.6,-914 c -18.2,-18.8 -42.5,-28.3 -66.7,-28.3"
         style="fill:#ffffff;fill-opacity:1;fill-rule:nonzero;stroke:none"
         id="path36" /><path
         d="m 25168.9,6679.3 -132.2,267.8 -284.5,90.8 633.4,314.5 -216.7,-673.1"
         style="fill:#ffffff;fill-opacity:1;fill-rule:nonzero;stroke:none"
         id="path38" /><path
         d="m 6336.77,15087.4 c -224.31,0 -406.79,-182.4 -406.79,-406.7 0,-224.3 182.48,-406.8 406.79,-406.8 224.3,0 406.78,182.5 406.78,406.8 0,224.3 -182.48,406.7 -406.78,406.7 z m 0,-968.2 c -309.57,0 -561.43,251.9 -561.43,561.5 0,309.5 251.86,561.4 561.43,561.4 309.57,0 561.42,-251.9 561.42,-561.4 0,-309.6 -251.85,-561.5 -561.42,-561.5"
         style="fill:#ffffff;fill-opacity:1;fill-rule:nonzero;stroke:none"
         id="path40" /><path
         d="m 23464.8,10360 c -164.3,0 -298,-133.7 -298,-298 0,-164.3 133.7,-297.9 298,-297.9 164.2,0 297.9,133.6 297.9,297.9 0,164.3 -133.7,298 -297.9,298 z m 0,-709.2 c -226.8,0 -411.3,184.5 -411.3,411.2 0,226.8 184.5,411.2 411.3,411.2 226.7,0 411.2,-184.4 411.2,-411.2 0,-226.7 -184.5,-411.2 -411.2,-411.2"
         style="fill:#e3eaff;fill-opacity:1;fill-rule:nonzero;stroke:none"
         id="path42" /><path
         d="m 1876.4,8033.3 c -147.52,0 -267.54,-120 -267.54,-267.5 0,-147.6 120.02,-267.6 267.54,-267.6 147.52,0 267.54,120 267.54,267.6 0,147.5 -120.02,267.5 -267.54,267.5 z m 0,-636.8 c -203.6,0 -369.23,165.7 -369.23,369.3 0,203.6 165.63,369.2 369.23,369.2 203.6,0 369.23,-165.6 369.23,-369.2 0,-203.6 -165.63,-369.3 -369.23,-369.3"
         style="fill:#ffffff;fill-opacity:1;fill-rule:nonzero;stroke:none"
         id="path44" /><path
         d="m 21669.3,15756.8 c 0,-110.9 -89.9,-200.9 -200.9,-200.9 -110.9,0 -200.9,90 -200.9,200.9 0,111 90,200.9 200.9,200.9 111,0 200.9,-89.9 200.9,-200.9"
         style="fill:#ffffff;fill-opacity:1;fill-rule:nonzero;stroke:none"
         id="path46" /><path
         d="m 4061.8,12037.6 c 0,-218.2 -176.84,-395 -394.98,-395 -218.15,0 -394.99,176.8 -394.99,395 0,218.1 176.84,395 394.99,395 218.14,0 394.98,-176.9 394.98,-395"
         style="fill:#e3eaff;fill-opacity:1;fill-rule:nonzero;stroke:none"
         id="path48" /><path
         d="m 22869.6,16535.7 c 0,-164 -132.9,-297 -296.9,-297 -164,0 -296.9,133 -296.9,297 0,163.9 132.9,296.9 296.9,296.9 164,0 296.9,-133 296.9,-296.9"
         style="fill:#e3eaff;fill-opacity:1;fill-rule:nonzero;stroke:none"
         id="path50" /><path
         d="m 24322.7,9405.6 c 0,-140 -113.4,-253.5 -253.4,-253.5 -140,0 -253.5,113.5 -253.5,253.5 0,140 113.5,253.4 253.5,253.4 140,0 253.4,-113.4 253.4,-253.4"
         style="fill:#e3eaff;fill-opacity:1;fill-rule:nonzero;stroke:none"
         id="path52" /><path
         d="m 22128.8,15000.2 c 0,-174.5 -141.5,-316 -316,-316 -174.6,0 -316,141.5 -316,316 0,174.5 141.4,316 316,316 174.5,0 316,-141.5 316,-316"
         style="fill:#ffffff;fill-opacity:1;fill-rule:nonzero;stroke:none"
         id="path54" /><path
         d="m 7595.4,15574.1 c 0,-177 -143.51,-320.5 -320.53,-320.5 -177.02,0 -320.52,143.5 -320.52,320.5 0,177 143.5,320.5 320.52,320.5 177.02,0 320.53,-143.5 320.53,-320.5"
         style="fill:#ffffff;fill-opacity:1;fill-rule:nonzero;stroke:none"
         id="path56" /><path
         d="M 22753.5,415.902 H 3780.9 c -61.9,0 -112.08,50.2 -112.08,112.098 v 0 c 0,61.902 50.18,112.102 112.08,112.102 h 18972.6 c 61.9,0 112.1,-50.2 112.1,-112.102 v 0 c 0,-61.898 -50.2,-112.098 -112.1,-112.098"
         style="fill:#201d40;fill-opacity:1;fill-rule:nonzero;stroke:none"
         id="path58" /><path
         d="m 9681.87,10230.5 h 0.35 l 291.21,-1.1 65.97,-687.8 -339.97,-179.5 -362.51,177.5 58.59,689.8 286.36,1.1"
         style="fill:#f37a50;fill-opacity:1;fill-rule:nonzero;stroke:none"
         id="path60" /><path
         d="m 10018.9,1044.8 c 61.9,168.3 194.4,187 194.4,187 257.5,-355.3 889.8,-137.3 868.9,-617.8 -961.6,6.199 -1361.25,0 -1361.25,0 1.27,110.398 20.28,372.301 42.45,474.9 l 50.12,-9.2 205.38,-34.9"
         style="fill:#000000;fill-opacity:1;fill-rule:nonzero;stroke:none"
         id="path62" /><path
         d="m 8580.12,1035.5 c 61.97,168.3 194.44,187 194.44,187 257.49,-355.301 889.84,-137.3 868.91,-617.801 -961.61,6.203 -1361.26,0 -1361.26,0 1.27,110.403 20.28,372.301 42.45,474.901 l 50.12,-9.2 205.34,-34.9"
         style="fill:#000000;fill-opacity:1;fill-rule:nonzero;stroke:none"
         id="path64" /><path
         d="m 10658.4,6655.7 c 0,0 156.2,-2277.1 92.7,-2783.3 -63.4,-506.3 -288,-1155.3 -262.5,-2829.7 -313.5,-78.497 -767.65,0 -767.65,0 0,0 -67.33,1893.3 264.05,2739 -134.75,821.5 -567.15,2703 -567.15,2703 l 1240.55,171"
         style="fill:#201d40;fill-opacity:1;fill-rule:nonzero;stroke:none"
         id="path66" /><path
         d="m 10065.1,6593.4 c 0,0 -315.25,-2556.3 -469.57,-3041.2 -154.32,-484.9 -455.28,-894.9 -734.67,-2544.4 -322.14,-16.097 -622.13,0 -622.13,0 0,0 43.48,2092.4 545.21,2568.2 16.98,833 -81.13,3001 -81.13,3001 l 1362.29,16.4"
         style="fill:#2c2858;fill-opacity:1;fill-rule:nonzero;stroke:none"
         id="path68" /><path
         d="m 8611.81,9494.8 c 0,0 547.54,191.7 730.12,103.7 567.32,-273.1 697.47,0 697.47,0 181.3,-15.6 728.5,-103.7 728.5,-103.7 0,-611.2 40.8,-1224.5 29.7,-1687 -7.8,-402.7 68.9,-1498.8 68.9,-1498.8 0,0 -603.6,-158.2 -1174.68,-162.4 -571.07,3.7 -1152.29,156 -1152.29,156 0,0 30.5,1110.1 55.87,1522.7 -8.24,462.5 16.41,1059.9 16.41,1669.5"
         style="fill:#e62552;fill-opacity:1;fill-rule:nonzero;stroke:none"
         id="path70" /><path
         d="m 11716.2,8586.4 c -226,539.2 -896.6,882.2 -973.3,908.4 l -155.5,-692.3 c 322.2,-190.5 556,-396.6 556,-396.6 -39.6,-192.8 -33,-381.8 -144.6,-625.6 0,0 96.9,133.7 216.5,54.6 116.2,-76.9 329.9,80.1 329.9,80.1 0,0 343.7,259.5 171,671.4"
         style="fill:#c4204a;fill-opacity:1;fill-rule:nonzero;stroke:none"
         id="path72" /><path
         d="m 11615.3,7223.7 c 3.9,-1.2 7.8,-1.9 11.7,-2.3 h 12.9 c 23.6,2.5 44.5,18.6 52,42.6 l 602.5,1942.5 c 1.2,3.9 2,7.9 2.4,11.8 0.3,2.6 0.1,5.1 0.1,7.6 0,1.6 0.1,3.1 0,4.7 -0.2,1.3 -0.6,2.6 -0.8,4 -3.6,22 -19.1,41.3 -41.9,48.5 -3.7,1.1 -7.5,2 -11.5,2.4 -4.4,0.5 -8.8,0.4 -13,0 h -1516.8 l -607.7,-2064.1 h 1511.1 l -1,2.3"
         style="fill:#95a6db;fill-opacity:1;fill-rule:nonzero;stroke:none"
         id="path74" /><path
         d="m 10726.7,9283.1 c -32.2,10 -66.5,-8 -76.6,-40.3 l -598.7,-1937.6 -1.3,-4.6 c -10,-32.1 8,-66.2 40,-76.3 l 0.1,-0.2 c 32.3,-10 66.6,8 76.6,40.3 l 600.2,1942.1 c 10.1,32.3 -8,66.6 -40.3,76.6"
         style="fill:#768fdb;fill-opacity:1;fill-rule:nonzero;stroke:none"
         id="path76" /><path
         d="m 11872.6,8050.7 c 5.7,3.8 11.9,6.2 18.2,7.9 -0.7,1 -1.4,1.9 -2,2.8 -37.8,56.9 -35.2,125 5.6,152.1 6.7,4.4 14.1,7.3 21.8,9.1 -10.6,42.1 -1.1,82.4 28,101.7 11.6,7.6 25.1,11.1 39.2,10.9 -13.3,41.4 -2.7,84.9 29.9,106.5 40.8,27.1 100.1,9.6 132.3,-39 32.2,-48.6 25.2,-109.9 -15.7,-136.9 -10.3,-6.9 -21.8,-10.8 -33.8,-12.2 27.2,-53 21.7,-111 -15.2,-135.4 -6.7,-4.5 -14.1,-7.4 -21.8,-9.2 10.6,-42.1 1.1,-82.3 -28.1,-101.7 -10.7,-7.1 -23.1,-10.6 -36.1,-10.9 13.5,-36.2 4.9,-75.2 -23.8,-94.3 -34.5,-22.8 -84.5,-8.1 -111.7,33 -27.2,41 -21.3,92.8 13.2,115.6"
         style="fill:#f37a50;fill-opacity:1;fill-rule:nonzero;stroke:none"
         id="path78" /><path
         d="m 10008,8173.5 138.2,80.1 c 0,0 38.3,196.1 260.3,200.8 -25.4,-82.3 -62,-200.8 -62,-200.8 0,0 109.3,-84.8 368.4,60.4 253.4,56.9 145.2,-127.8 229.2,-141.1 123.9,-19.6 -90.4,-263.1 -343.3,-300.3 -327.4,-48.2 -366.2,18.8 -366.2,18.8 l -185.3,-64.7 -39.3,346.8"
         style="fill:#f37a50;fill-opacity:1;fill-rule:nonzero;stroke:none"
         id="path80" /><path
         d="m 8728.56,7964 c 462.12,32.3 1250.45,260.5 1250.45,260.5 126.19,-193.5 91.29,-450.5 91.29,-450.5 -717.68,-629.2 -1797.76,-832.6 -2129.15,-681.1 -302.55,138.2 -88.97,1980 670.66,2401.9 v 0 C 8872.23,9054.1 8728.56,7964 8728.56,7964"
         style="fill:#8a284c;fill-opacity:1;fill-rule:nonzero;stroke:none"
         id="path82" /><path
         d="m 16551.5,1215.6 c -257.5,-343.401 -889.9,-132.7 -868.9,-597.198 961.6,5.996 1361.2,0 1361.2,0 -1.2,106.7 -20.3,359.899 -42.4,459.098 l -449.9,138.1"
         style="fill:#000000;fill-opacity:1;fill-rule:nonzero;stroke:none"
         id="path84" /><path
         d="m 17990.2,1206.6 c -257.5,-343.401 -889.8,-132.7 -868.9,-597.202 961.6,6.004 1361.3,0 1361.3,0 -1.3,106.704 -20.3,359.903 -42.5,459.102 l -449.9,138.1"
         style="fill:#000000;fill-opacity:1;fill-rule:nonzero;stroke:none"
         id="path86" /><path
         d="m 16106.3,6459.2 c 0,0 -156.1,-2201.4 -92.7,-2690.8 63.4,-489.4 288,-1116.8 262.6,-2735.6 313.5,-75.902 767.6,0 767.6,0 0,0 67.4,1830.4 -264,2648 134.7,794.1 567.1,2613 567.1,2613 l -1240.6,165.4"
         style="fill:#201d40;fill-opacity:1;fill-rule:nonzero;stroke:none"
         id="path88" /><path
         d="m 16699.7,6399 c 0,0 315.2,-2471.4 469.5,-2940.1 154.4,-468.8 455.3,-865.2 734.7,-2459.798 322.1,-15.602 706,63.698 706,63.698 0,0 -127.3,1959.1 -629.1,2419.1 -16.9,805.3 81.2,2901.2 81.2,2901.2 l -1362.3,15.9"
         style="fill:#2c2858;fill-opacity:1;fill-rule:nonzero;stroke:none"
         id="path90" /><path
         d="m 17983.6,10442.2 c -170.9,-427 -581.2,-664.3 -916.6,-530.1 -335.4,134.2 -468.7,589.1 -297.8,1016.1 170.8,427 581.2,664.4 916.6,530.2 335.4,-134.2 468.7,-589.2 297.8,-1016.2"
         style="fill:#f37a50;fill-opacity:1;fill-rule:nonzero;stroke:none"
         id="path92" /><path
         d="m 16915,10788.1 c -19.8,-28.5 -59,-35.5 -87.5,-15.7 -28.4,19.8 -35.5,59 -15.6,87.4 19.8,28.5 58.9,35.5 87.4,15.7 28.5,-19.8 35.5,-58.9 15.7,-87.4"
         style="fill:#000000;fill-opacity:1;fill-rule:nonzero;stroke:none"
         id="path94" /><path
         d="m 17385.5,10596 c -21.4,-30.8 -63.8,-38.4 -94.6,-17 -30.9,21.5 -38.5,63.9 -17,94.7 21.4,30.8 63.8,38.4 94.6,17 30.9,-21.4 38.5,-63.8 17,-94.7"
         style="fill:#000000;fill-opacity:1;fill-rule:nonzero;stroke:none"
         id="path96" /><path
         d="m 17010.4,10687.8 c -84.9,-66.9 -191.1,-147.7 -191.1,-147.7 0,0 -1.1,-102.4 118.5,-146.8 -43.3,39.3 -81.3,91.5 -36.2,151.9 45,60.3 108.8,142.6 108.8,142.6"
         style="fill:#de623c;fill-opacity:1;fill-rule:nonzero;stroke:none"
         id="path98" /><path
         d="m 17509.3,10636.9 c -14.2,0 -27,9.7 -30.4,24.1 -0.9,3.4 -21.9,85.1 -91.9,85.4 -17.3,0.1 -31.3,14.2 -31.2,31.5 0,17.3 14.3,31.3 31.5,31.2 95.6,-0.5 141.6,-87.5 152.5,-133.5 4.1,-16.9 -6.3,-33.8 -23.2,-37.8 -2.4,-0.6 -4.9,-0.9 -7.3,-0.9"
         style="fill:#000000;fill-opacity:1;fill-rule:nonzero;stroke:none"
         id="path100" /><path
         d="m 16980.8,10921 c -8.9,0 -17.6,4.5 -22.5,12.7 -0.5,0.8 -17.4,27.8 -45.4,32.8 -19.7,3.5 -42,-4.6 -66.3,-24 -11.3,-9 -27.7,-7.2 -36.7,4.1 -9.1,11.3 -7.2,27.7 4,36.7 36.8,29.5 73.5,41.1 108.9,34.5 51.9,-9.6 79.4,-55.5 80.5,-57.5 7.3,-12.4 3.1,-28.4 -9.3,-35.7 -4.2,-2.5 -8.7,-3.6 -13.2,-3.6"
         style="fill:#000000;fill-opacity:1;fill-rule:nonzero;stroke:none"
         id="path102" /><path
         d="m 17864.4,10397.7 c -123.6,397.2 32.7,608.4 32.7,608.4 -106.1,21.2 -147.3,-15.5 -147.3,-15.5 -57.9,118.8 -13.1,204 -13.1,204 -219.3,85.5 -328.5,-56.5 -526.3,-104.4 -270.9,-65.5 -605.6,42.6 -636.9,373.3 -4.6,47.9 48.1,78.9 88,52.1 37.1,-24.8 86.4,-44.8 147.6,-43.1 0,0 -56.7,64 -59.6,152.6 -1.6,48.9 55.6,75.2 93.2,43.9 56.3,-46.8 160.8,-91.1 347.1,-56.2 124,23.2 407.9,221.8 584.7,183 144.6,-31.7 259.3,-154.7 308.7,-330.8 0,0 355.3,-36.8 390.9,-427.9 35,-384.2 -410,-679 -410,-679 l -199.7,39.6"
         style="fill:#000000;fill-opacity:1;fill-rule:nonzero;stroke:none"
         id="path104" /><path
         d="m 17816,10463.9 c -94.1,-53.3 -135,-158.9 -91.4,-235.9 43.6,-77 155.3,-96.2 249.4,-42.9 94.1,53.3 135,158.9 91.3,236 -43.6,77 -155.2,96.2 -249.3,42.8"
         style="fill:#f37a50;fill-opacity:1;fill-rule:nonzero;stroke:none"
         id="path106" /><path
         d="m 17831.2,10232.8 c -3,2.1 -5.5,4.8 -7.3,8.1 -26.1,47.9 -22,96.8 10.9,130.9 33.7,34.8 88.3,45.1 129.7,24.3 11.7,-5.9 16.4,-20.1 10.6,-31.8 -5.9,-11.6 -20.1,-16.4 -31.8,-10.5 -22.7,11.4 -55.4,4.9 -74.5,-14.9 -18.3,-18.9 -19.5,-45.7 -3.3,-75.3 6.2,-11.5 2,-25.9 -9.5,-32.1 -8.1,-4.5 -17.7,-3.6 -24.8,1.3"
         style="fill:#de623c;fill-opacity:1;fill-rule:nonzero;stroke:none"
         id="path108" /><path
         d="m 16838.7,10256.8 c -9.2,15.1 3.9,33.8 21.1,30.1 44,-9.2 116.7,-23 186.7,-29.2 70,-6.3 144.1,-5.6 188.9,-4.3 17.6,0.6 27.2,-20.2 15.5,-33.4 -36.1,-40.5 -108.5,-100.5 -215.9,-90.9 -107.3,9.6 -168,81.4 -196.3,127.7"
         style="fill:#ffffff;fill-opacity:1;fill-rule:nonzero;stroke:none"
         id="path110" /><path
         d="m 16387.4,9697.4 c 0,0 16,43.4 -1367.8,32.3 l -371,-438.5 c 384,-307.9 1670,-362.6 1670,-362.6 l 68.8,768.8"
         style="fill:#201d40;fill-opacity:1;fill-rule:nonzero;stroke:none"
         id="path112" /><path
         d="m 16890.2,9733 436.5,40.8 422.3,-117.8 -475.8,-489.6 -383,566.6"
         style="fill:#95a6db;fill-opacity:1;fill-rule:nonzero;stroke:none"
         id="path114" /><path
         d="m 17041.5,9508.3 c 177.9,-146 214.3,-246.9 592.1,-51.7 l 56.7,580.9 -615.1,48.5 -33.7,-577.7"
         style="fill:#f37a50;fill-opacity:1;fill-rule:nonzero;stroke:none"
         id="path116" /><path
         d="m 17861,9422.2 v 0 l -129.3,51.1 17.3,182.7 -358.8,-288.1 -101.3,-16.1 -96.9,33.9 -301.8,347.3 -15.4,-182.8 -114.2,-22.9 v 0 l -411.5,-66.7 -49,-2284.4 -162.4,-777.2 c 546.1,-181.7 1156.9,-227 1757.3,-144.3 l -20.2,780.3 426.5,2232.6 -440.3,154.6"
         style="fill:#95a6db;fill-opacity:1;fill-rule:nonzero;stroke:none"
         id="path118" /><path
         d="m 17210,9121 -257.9,-1744.2 142.8,-198.4 186.1,143 63.4,1785.1 -134.4,14.5"
         style="fill:#2c2858;fill-opacity:1;fill-rule:nonzero;stroke:none"
         id="path120" /><path
         d="m 17194.6,9326.9 94.3,24.9 96,-41.9 -40.6,-206.8 -135.2,12.1 -14.5,211.7"
         style="fill:#2c2858;fill-opacity:1;fill-rule:nonzero;stroke:none"
         id="path122" /><path
         d="m 16884.2,9718.4 -64.6,-2106.9 -278.9,-1356.8 c 0,0 -441,44.5 -712,302.4 l 347.3,1021.3 118.7,2134.4 589.5,5.6"
         style="fill:#2c2858;fill-opacity:1;fill-rule:nonzero;stroke:none"
         id="path124" /><path
         d="m 16884.2,9718.4 -64.3,-2078.7 -321,1593.1 z"
         style="fill:#494c7f;fill-opacity:1;fill-rule:nonzero;stroke:none"
         id="path126" /><path
         d="m 17782,9583.7 -572.7,-3415.8 c 0,0 759.9,-93.4 1072.4,112.1 l -169.5,1122.9 207.2,1906.3 -537.4,274.5"
         style="fill:#2c2858;fill-opacity:1;fill-rule:nonzero;stroke:none"
         id="path128" /><path
         d="m 17782,9583.7 -334.7,-2002.1 599.3,1510.5 z"
         style="fill:#494c7f;fill-opacity:1;fill-rule:nonzero;stroke:none"
         id="path130" /><path
         d="m 13997.6,11592.4 c 30.5,-106.5 39.6,-221.5 174.8,-278.9 0,0 -20,-353.7 -5.1,-643.8 0,0 327.1,368.9 327.1,369.2 -18.8,116.9 -33.9,338 -15.9,463.6 4.7,32.6 11.1,65 16.2,97.7 14,79.3 37.4,160.5 -11,256.2 -186.7,369.8 -123.8,491.5 -149.5,509.5 -41.8,18.5 -140.1,-56 -84.5,-237.7 53.8,-175.8 40.5,-262.1 40.5,-262.1 0,0 -141.1,26.6 -191.2,-22.8 -22.7,-22.4 -137,-126.2 -101.4,-250.9"
         style="fill:#f37a50;fill-opacity:1;fill-rule:nonzero;stroke:none"
         id="path132" /><path
         d="m 14073.6,11094 c 190.6,63.5 291,92.1 439.2,92.1 350.5,-1044.5 600.4,-1438.1 496.2,-1738 -86.9,-250 -361.8,-230 -496.2,-42.6 -177.3,247.1 -334.2,1185.9 -439.2,1688.5"
         style="fill:#201d40;fill-opacity:1;fill-rule:nonzero;stroke:none"
         id="path134" /><path
         d="m 18319.4,9309.2 1104.3,-1727.6 1311.5,-740.5 -404.2,-402.5 -1315.8,576.8 -903,1274.1 207.2,1019.7"
         style="fill:#201d40;fill-opacity:1;fill-rule:nonzero;stroke:none"
         id="path136" /><path
         d="m 17288.9,9351.8 c 0,0 -162.5,-164 -311.9,-206 l -174.2,462.1 87.4,125.1 398.7,-381.2"
         style="fill:#ffffff;fill-opacity:1;fill-rule:nonzero;stroke:none"
         id="path138" /><path
         d="m 17288.9,9351.8 c 0,0 92.6,-159.1 270.2,-258.2 l 253.6,423.8 -63.7,138.6 -460.1,-304.2"
         style="fill:#ffffff;fill-opacity:1;fill-rule:nonzero;stroke:none"
         id="path140" /><path
         d="M 18490.8,4433.6 H 8849.01 c -226.6,0 -410.31,123.6 -410.31,276.1 v 0 c 0,152.5 183.71,276.1 410.31,276.1 h 9641.79 c 226.6,0 410.3,-123.6 410.3,-276.1 v 0 c 0,-152.5 -183.7,-276.1 -410.3,-276.1"
         style="fill:#95a6db;fill-opacity:1;fill-rule:nonzero;stroke:none"
         id="path142" /><path
         d="m 12462.7,542.902 v 0 c -103.4,0 -165.5,114.7 -109,201.2 L 14899.5,4645.4 15117.4,4503.2 12571.6,601.898 c -24,-36.796 -65,-58.996 -108.9,-58.996"
         style="fill:#95a6db;fill-opacity:1;fill-rule:nonzero;stroke:none"
         id="path144" /><path
         d="m 14877.1,542.902 v 0 c 103.4,0 165.5,114.7 109,201.2 L 12440.3,4645.4 12222.4,4503.2 14768.2,601.898 c 24,-36.796 65,-58.996 108.9,-58.996"
         style="fill:#95a6db;fill-opacity:1;fill-rule:nonzero;stroke:none"
         id="path146" /><path
         d="m 18874.6,604.699 v 0 c -68.8,0 -124.6,55.801 -124.6,124.602 V 2937.6 h 249.3 V 729.301 c 0,-68.801 -55.8,-124.602 -124.7,-124.602"
         style="fill:#768fdb;fill-opacity:1;fill-rule:nonzero;stroke:none"
         id="path148" /><path
         d="m 19749.2,604.699 v 0 c -68.9,0 -124.7,55.801 -124.7,124.602 V 2937.6 h 249.3 V 729.301 c 0,-68.801 -55.8,-124.602 -124.6,-124.602"
         style="fill:#768fdb;fill-opacity:1;fill-rule:nonzero;stroke:none"
         id="path150" /><path
         d="m 20896.7,604.699 v 0 c -68.8,0 -124.6,55.801 -124.6,124.602 V 2937.6 h 249.3 V 729.301 c 0,-68.801 -55.8,-124.602 -124.7,-124.602"
         style="fill:#768fdb;fill-opacity:1;fill-rule:nonzero;stroke:none"
         id="path152" /><path
         d="m 21771.3,604.699 v 0 c -68.8,0 -124.6,55.801 -124.6,124.602 V 2937.6 h 249.2 V 729.301 c 0,-68.801 -55.8,-124.602 -124.6,-124.602"
         style="fill:#768fdb;fill-opacity:1;fill-rule:nonzero;stroke:none"
         id="path154" /><path
         d="M 20392.3,6214.9 V 3587 c 0,-29.9 -24.2,-54.1 -54.2,-54.1 h -1629.3 c -164.4,0 -297.6,-133.3 -297.6,-297.7 v 0 c 0,-164.4 133.2,-297.6 297.6,-297.6 h 1683.5 297.6 c 164.4,0 297.7,133.2 297.7,297.6 v 297.7 2682 c 0,164.3 -133.3,297.6 -297.7,297.6 v 0 c -164.4,0 -297.6,-133.3 -297.6,-297.6"
         style="fill:#95a6db;fill-opacity:1;fill-rule:nonzero;stroke:none"
         id="path156" /><path
         d="m 21978.1,3484.6 h -1288.2 v 3027.9 h 1288.2 V 3484.6"
         style="fill:#95a6db;fill-opacity:1;fill-rule:nonzero;stroke:none"
         id="path158" /><path
         d="M 21680.5,6214.9 V 3587 c 0,-29.9 -24.3,-54.1 -54.2,-54.1 H 19997 c -164.4,0 -297.6,-133.3 -297.6,-297.7 v 0 c 0,-164.4 133.2,-297.6 297.6,-297.6 h 1683.5 297.6 c 164.4,0 297.7,133.2 297.7,297.6 v 297.7 2682 c 0,164.3 -133.3,297.6 -297.7,297.6 v 0 c -164.4,0 -297.6,-133.3 -297.6,-297.6"
         style="fill:#768fdb;fill-opacity:1;fill-rule:nonzero;stroke:none"
         id="path160" /><path
         d="m 8343.17,604.699 h 0.01 c 68.83,0 124.63,55.801 124.63,124.602 V 2937.6 H 8218.54 V 729.301 c 0,-68.801 55.8,-124.602 124.63,-124.602"
         style="fill:#768fdb;fill-opacity:1;fill-rule:nonzero;stroke:none"
         id="path162" /><path
         d="m 7468.61,604.699 v 0 c 68.84,0 124.64,55.801 124.64,124.602 V 2937.6 H 7343.98 V 729.301 c 0,-68.801 55.8,-124.602 124.63,-124.602"
         style="fill:#768fdb;fill-opacity:1;fill-rule:nonzero;stroke:none"
         id="path164" /><path
         d="m 6321.04,604.699 v 0 c 68.84,0 124.64,55.801 124.64,124.602 V 2937.6 H 6196.41 V 729.301 c 0,-68.801 55.8,-124.602 124.63,-124.602"
         style="fill:#768fdb;fill-opacity:1;fill-rule:nonzero;stroke:none"
         id="path166" /><path
         d="m 5446.48,604.699 v 0 c 68.84,0 124.64,55.801 124.64,124.602 V 2937.6 H 5321.85 V 729.301 c 0,-68.801 55.8,-124.602 124.63,-124.602"
         style="fill:#768fdb;fill-opacity:1;fill-rule:nonzero;stroke:none"
         id="path168" /><path
         d="M 6825.51,6214.9 V 3587 c 0,-29.9 24.24,-54.1 54.14,-54.1 h 1629.31 c 164.38,0 297.64,-133.3 297.64,-297.7 v 0 c 0,-164.4 -133.26,-297.6 -297.64,-297.6 H 6825.51 6527.86 c -164.38,0 -297.65,133.2 -297.65,297.6 v 297.7 2682 c 0,164.3 133.27,297.6 297.65,297.6 h 0.01 c 164.38,0 297.64,-133.3 297.64,-297.6"
         style="fill:#95a6db;fill-opacity:1;fill-rule:nonzero;stroke:none"
         id="path170" /><path
         d="m 5239.67,3484.6 h 1288.2 V 6512.5 H 5239.67 V 3484.6"
         style="fill:#95a6db;fill-opacity:1;fill-rule:nonzero;stroke:none"
         id="path172" /><path
         d="M 5537.31,6214.9 V 3587 c 0,-29.9 24.24,-54.1 54.15,-54.1 h 1629.31 c 164.38,0 297.64,-133.3 297.64,-297.7 v 0 c 0,-164.4 -133.26,-297.6 -297.64,-297.6 H 5537.31 5239.67 c -164.39,0 -297.64,133.2 -297.64,297.6 v 297.7 2682 c 0,164.3 133.25,297.6 297.64,297.6 v 0 c 164.38,0 297.64,-133.3 297.64,-297.6"
         style="fill:#768fdb;fill-opacity:1;fill-rule:nonzero;stroke:none"
         id="path174" /><path
         d="m 8120.38,5616.1 c -117.9,-78.5 -85.26,-506.1 -40.75,-527.8 613.09,-74.9 1648.61,433 1648.61,433 l 40.56,227.3 c 0,0 -864.87,-144.9 -1648.42,-132.5"
         style="fill:#f37a50;fill-opacity:1;fill-rule:nonzero;stroke:none"
         id="path176" /><path
         d="m 6773.28,6357.4 c 219.17,-350.5 1178.5,-1256.7 1327.38,-1270.2 l 126.78,513.8 c 0,0 -861.14,1091.8 -1012.85,1266 -262.02,302.4 -800.22,62 -441.31,-509.6"
         style="fill:#f37a50;fill-opacity:1;fill-rule:nonzero;stroke:none"
         id="path178" /><path
         d="m 7297.57,8230.2 c 26.36,358.9 -77.4,675.9 -363.52,837.3 -290.02,163.7 -653.32,3.2 -653.32,3.2 v 0 c -0.03,0 -307.52,109.4 -586.21,-197.6 -278.7,-307 -67.89,-577.1 -181.9,-801 -67.52,-132.6 -410.83,-160 -322.15,-591.8 25.58,-124.6 175.37,-208.4 302.26,-216.7 222.92,-14.7 430.51,71.5 520.87,-14.7 297.78,-284 957.67,-181.3 1050.02,78.5 28.64,80.5 622.23,-75.3 563.01,473.3 -30.01,278 -352.62,108.9 -329.06,429.5"
         style="fill:#2c2858;fill-opacity:1;fill-rule:nonzero;stroke:none"
         id="path180" /><path
         d="m 6753.62,7070.2 -471.27,87 -176.72,-235.1 375.58,-770 552.42,468.8 -280.01,449.3"
         style="fill:#f37a50;fill-opacity:1;fill-rule:nonzero;stroke:none"
         id="path182" /><path
         d="m 7364.53,5213.6 c -8.06,146.5 228.72,748.2 104.08,1051 -90.77,243.6 -242.42,652.6 -428.12,720.8 -87.63,32.2 -177.68,54.6 -286.87,84.8 0,0 61.61,-307 -66.73,-317.3 -247.05,-19.8 -404.54,404.3 -404.54,404.3 -133.2,12.7 -744.19,-188 -743.9,-238.2 1.45,-392.9 320.72,-966.3 425.12,-1391.2 41.07,-458.8 -119.01,-1007.9 -119.59,-1060.1 0,0 982.89,-276.4 1565.53,44.4 12.18,44.7 -33.87,499.2 -44.98,701.5"
         style="fill:#3f964f;fill-opacity:1;fill-rule:nonzero;stroke:none"
         id="path184" /><path
         d="m 5991.83,4939.1 c 0,0 -216.99,-547.4 -269.9,-892 -52.91,-344.6 245.72,-565.7 245.72,-565.7 h 2483.36 c 0,0 265.87,431.1 189.29,728.8 -76.58,297.8 -252.71,345.1 -252.71,345.1 l -2395.76,383.8"
         style="fill:#3f964f;fill-opacity:1;fill-rule:nonzero;stroke:none"
         id="path186" /><path
         d="M 8484.28,4570.6 C 8167.22,4615.3 7247.04,4257.9 6854.67,3481.4 h 1097.68 l 531.93,1089.2"
         style="fill:#de623c;fill-opacity:1;fill-rule:nonzero;stroke:none"
         id="path188" /><path
         d="m 8136.57,4284.7 c 40.98,44.9 78.18,100.2 110.93,157.9 92.53,163 315.58,190.5 441.52,51.7 457.68,-504.6 1433.38,-1655 1650.88,-1798.1 61.5,-40.4 420.1,-246.9 761,-206.1 0,0 168.2,-64 56.1,-197.7 -57.7,-68.7 -924,-139.8 -924,-139.8 l -67.5,254.4 c -504.33,373.2 -1132.12,346.4 -1664.42,1028.7 -293.13,375.8 -364.51,849 -364.51,849"
         style="fill:#de623c;fill-opacity:1;fill-rule:nonzero;stroke:none"
         id="path190" /><path
         d="m 10408.5,2005.8 348.6,-226.2 47.9,57.1 -282.8,263.7 c 160.7,126.7 532.7,21 532.7,21 121.9,78.7 359.4,334 383.9,470.8 -78,97.2 -337.9,-102.8 -337.9,-102.8 9.6,-43.3 -72.5,-193.4 -137.8,-219 -283.9,-61.3 -566.8,19.4 -797.6,136.6 0,0 -192.92,-292.3 243,-401.2"
         style="fill:#e62552;fill-opacity:1;fill-rule:nonzero;stroke:none"
         id="path192" /><path
         d="m 8131.49,4216.2 c -63.48,-17.1 -110.85,-70.3 -120.03,-135.4 -24.83,-176.1 -153.05,-532.7 20.42,-906.2 425.89,-917 677.35,-1521.2 722.02,-1757.8 -111.25,-208.4 332.35,-777.499 338.95,-814.8 l 319.28,100 c 0,0 -183.2,272.5 -249.16,379.2 -157.07,254.1 -182.76,565.9 -208.3,807.6 -108.99,1031.9 78.41,1683.4 -668.21,2288.7 -44.15,35.8 -100.06,53.5 -154.97,38.7"
         style="fill:#f37a50;fill-opacity:1;fill-rule:nonzero;stroke:none"
         id="path194" /><path
         d="m 8594.84,980.301 31.48,-414.399 74.47,-3.5 38.22,384.797 c 198.18,-50.898 339.7,-410.898 339.7,-410.898 136.48,-49.199 483.54,-83.199 607.16,-19.801 30,121 -286.62,206.402 -286.62,206.402 C 9370.59,689 9201.46,663.301 9141.47,699.699 8920.65,888.301 8800.66,1162.1 8753.9,1416.8 c 0,0 -336.83,-23.9 -159.06,-436.499"
         style="fill:#e62552;fill-opacity:1;fill-rule:nonzero;stroke:none"
         id="path196" /><path
         d="m 6634.54,7455.1 -382.67,57.3 30.48,-355.2 c 0,0 73.24,-160.9 158.21,-171.8 l 313.06,84.8 -119.08,384.9"
         style="fill:#f37a50;fill-opacity:1;fill-rule:nonzero;stroke:none"
         id="path198" /><path
         d="m 5897.8,7968.7 c 98.79,-412.6 441.56,-684.2 765.6,-606.6 324.05,77.6 506.65,475 407.86,887.6 -98.79,412.5 -441.56,684.1 -765.61,606.5 -324.04,-77.6 -506.64,-474.9 -407.85,-887.5"
         style="fill:#f37a50;fill-opacity:1;fill-rule:nonzero;stroke:none"
         id="path200" /><path
         d="m 6919.4,8141.3 c 14.27,-28.7 49.06,-40.3 77.71,-26 28.65,14.2 40.3,49 26.03,77.7 -14.27,28.6 -49.05,40.3 -77.7,26 -28.65,-14.3 -40.3,-49.1 -26.04,-77.7"
         style="fill:#000000;fill-opacity:1;fill-rule:nonzero;stroke:none"
         id="path202" /><path
         d="m 6464.27,8029 c 15.44,-31 53.1,-43.6 84.11,-28.2 31.01,15.5 43.63,53.1 28.18,84.1 -15.44,31 -53.1,43.7 -84.11,28.2 -31.01,-15.4 -43.63,-53.1 -28.18,-84.1"
         style="fill:#000000;fill-opacity:1;fill-rule:nonzero;stroke:none"
         id="path204" /><path
         d="m 6394.91,8080.9 c 4.28,2.2 7.89,5.7 10.06,10.4 31.43,67.8 116.37,81 117.23,81.2 11.88,1.7 20.16,12.8 18.44,24.7 -1.71,11.9 -12.71,20.1 -24.6,18.5 -4.44,-0.7 -109.12,-16.4 -150.65,-106.1 -5.07,-10.9 -0.31,-23.9 10.62,-28.9 6.25,-2.9 13.18,-2.6 18.9,0.2"
         style="fill:#2c2858;fill-opacity:1;fill-rule:nonzero;stroke:none"
         id="path206" /><path
         d="m 7045.79,8225.3 c 2.09,1 4.05,2.4 5.79,4.2 8.46,8.5 8.38,22.4 -0.19,30.8 -66.54,65.8 -148.55,38.5 -152.01,37.3 -11.36,-3.9 -17.44,-16.3 -13.51,-27.7 3.92,-11.4 16.27,-17.4 27.64,-13.6 2.69,0.9 60.42,19.2 107.22,-27 6.81,-6.7 16.94,-8.1 25.06,-4"
         style="fill:#2c2858;fill-opacity:1;fill-rule:nonzero;stroke:none"
         id="path208" /><path
         d="m 6882.14,8015.3 c 31.79,-32.7 59.68,-66.4 90.03,-85.6 10.24,-6.4 13.51,-20 7.57,-30.6 -24.52,-43.4 -96.12,-79.2 -140.01,-97.9 -6.41,-2.7 -11.67,5.7 -6.43,10.3 44.31,38.8 63.34,67.4 71.33,83.1 3.98,7.9 3.87,17 -0.08,24.9 -9.09,17.9 -27.18,54.5 -39.41,84.8 -4.23,10.5 9.14,19.1 17,11"
         style="fill:#de623c;fill-opacity:1;fill-rule:nonzero;stroke:none"
         id="path210" /><path
         d="m 6053.73,7966.1 c 78.74,-61.3 101.92,-163.2 51.79,-227.6 -50.13,-64.5 -154.6,-67 -233.34,-5.8 -78.74,61.3 -101.93,163.2 -51.79,227.6 50.13,64.4 154.6,67 233.34,5.8"
         style="fill:#f37a50;fill-opacity:1;fill-rule:nonzero;stroke:none"
         id="path212" /><path
         d="m 6008.9,7757.2 c 2.94,1.4 5.59,3.6 7.7,6.4 30.23,40.2 33.07,85.4 7.6,120.9 -26.08,36.3 -74.52,52.9 -115.16,39.5 -11.44,-3.8 -17.64,-16.1 -13.86,-27.5 3.78,-11.5 16.11,-17.7 27.55,-13.9 22.27,7.3 51.27,-3 66.03,-23.6 14.18,-19.7 11.68,-44.3 -7.04,-69.2 -7.23,-9.6 -5.3,-23.3 4.33,-30.5 6.83,-5.2 15.69,-5.7 22.85,-2.1"
         style="fill:#de623c;fill-opacity:1;fill-rule:nonzero;stroke:none"
         id="path214" /><path
         d="m 6523.93,7686.3 c -9.14,12.3 0.73,29.5 15.95,27.7 38.7,-4.6 102.69,-10.9 163.76,-10.9 61.07,0 125.06,6.3 163.75,10.9 15.22,1.8 25.09,-15.4 15.96,-27.7 -28.07,-37.9 -86.1,-95.4 -179.71,-95.4 -93.61,0 -151.64,57.5 -179.71,95.4"
         style="fill:#ffffff;fill-opacity:1;fill-rule:nonzero;stroke:none"
         id="path216" /><path
         d="m 5889.79,8005.2 c 386.79,51.8 927.96,445.8 972.36,648.1 -74.82,242.9 -473.42,365 -698.5,252.4 -225.07,-112.5 -437.68,-594.8 -273.86,-900.5"
         style="fill:#2c2858;fill-opacity:1;fill-rule:nonzero;stroke:none"
         id="path218" /><path
         d="m 9508.12,5080.4 v 0 c -51.48,16.8 -79.59,72.1 -62.79,123.6 l 596.97,1828.9 c 16.9,51.4 72.2,79.6 123.7,62.7 v 0 c 51.5,-16.8 79.6,-72.1 62.8,-123.6 L 9631.76,5143.1 c -16.81,-51.4 -72.17,-79.5 -123.64,-62.7"
         style="fill:#ffffff;fill-opacity:1;fill-rule:nonzero;stroke:none"
         id="path220" /><path
         d="m 9825.22,5735.8 121.64,372.6 c 0,0 105.44,-214.3 0,-417.8 C 9841.43,5487.1 9741.07,5478 9741.07,5478 l 84.15,257.8"
         style="fill:#f37a50;fill-opacity:1;fill-rule:nonzero;stroke:none"
         id="path222" /><path
         d="m 9651.48,5835.5 c -30.76,72.3 -103.18,253.3 -30.76,252.5 72.42,-0.8 84.23,-88.7 84.23,-88.7 l -53.47,-163.8"
         style="fill:#f37a50;fill-opacity:1;fill-rule:nonzero;stroke:none"
         id="path224" /><path
         d="m 3670.78,6924.6 c 164.19,165.6 56.48,335.5 56.48,335.5 90.1,19.3 565.42,-700.7 770.37,-1158.3 357.5,360.3 987.44,846.9 1157.77,875.3 0,0 229.8,61.7 312.37,-216.1 73.7,-247.9 -213.73,-423.7 -213.73,-423.7 0,0 -1229.57,-868.1 -1411.41,-790.9 -282.98,120.1 -539.07,1153.3 -671.85,1378.2"
         style="fill:#f37a50;fill-opacity:1;fill-rule:nonzero;stroke:none"
         id="path226" /><path
         d="m 3414.06,6945.1 c 100.33,-6.1 224.4,43.5 263.06,-46.5 l 198.02,96.5 11.98,119.5 c -170.15,272.6 -584.91,350 -625.98,353.6 -106.69,9.3 -156.23,20.3 -164.56,6.1 -8.33,-14.3 -34.47,-109.3 120.34,-127.9 194.28,-23.3 65.3,-178.6 -328.83,-30.8 -98.69,37.1 -284.42,-11 -217.24,-83.1 74.02,-79.5 286.68,-259.6 743.21,-287.4"
         style="fill:#f37a50;fill-opacity:1;fill-rule:nonzero;stroke:none"
         id="path228" /><path
         d="m 14141.9,12497 c 0,-90.4 -15.5,-178 -44.5,-261.1 -145.4,-417.3 -630.7,-723.9 -1207.2,-723.9 -576.4,0 -1061.7,306.6 -1207.1,723.9 -29,83.1 -44.5,170.7 -44.5,261.1 h 2503.3"
         style="fill:#3f964f;fill-opacity:1;fill-rule:nonzero;stroke:none"
         id="path230" /><path
         d="m 14141.9,12497 c 0,-90.4 -15.5,-178 -44.5,-261.1 h -2414.3 c -29,83.1 -44.5,170.7 -44.5,261.1 h 2503.3"
         style="fill:#0e6a41;fill-opacity:1;fill-rule:nonzero;stroke:none"
         id="path232" /><path
         d="m 15511.4,16719.5 c 0,1446.3 -1171.5,2619.1 -2617.4,2621.1 -1426.1,2 -2599,-1147.2 -2624.5,-2573 -11.2,-623.7 195.5,-1198.6 549,-1653.9 447.3,-576.1 695.6,-1281.8 695.6,-2011.1 v -12.9 h 2752.3 v 12.8 c 0,730.4 250.1,1436.1 697.4,2013.5 343.3,443.2 547.6,999.5 547.6,1603.5"
         style="fill:#ffe91d;fill-opacity:1;fill-rule:nonzero;stroke:none"
         id="path234" /><path
         d="m 12918.9,16697.1 c -75.7,-128.7 -138.7,-273.4 -183,-423.5 -77.3,-261.9 -87.8,-512.9 -28.2,-671.3 43.1,-114.4 116.3,-173.9 223.8,-182 110.9,-8.3 180.7,37.2 219.8,143.2 88.8,241.4 -19,734.5 -232.4,1133.6 z m 367.9,-3310.8 c -7.3,0 -14.8,1.2 -22.1,3.8 -34.9,12.2 -53.4,50.3 -41.2,85.3 3.1,8.9 312.1,899.4 536.7,1806.2 398.1,1607.4 193.3,1868.6 86.7,1906.3 -313.2,111 -562.7,-53.1 -716.8,-210.3 -45.3,-46.1 -88.7,-98.3 -129.6,-155.1 66.9,-115.8 127.3,-243.6 177.8,-378.7 138.8,-370.9 175.7,-717.2 98.7,-926.5 -59.4,-161.5 -185.7,-243.4 -355.6,-230.6 -160.2,12 -277.5,104.8 -339.1,268.4 -70.6,187.5 -61.5,463.2 25,756.5 54.7,185.1 136.4,363.3 235.4,516.8 -92.5,146.2 -199.5,272 -315.6,356.7 -172.5,125.7 -334.5,131.2 -481.5,16.3 -303.6,-237.3 -315.2,-951 -33.6,-2063.8 217,-858 535.6,-1651.3 538.8,-1659.2 13.8,-34.3 -2.8,-73.3 -37.1,-87.2 -34.3,-13.8 -73.4,2.8 -87.2,37.1 -3.2,8 -324.8,808.5 -544.2,1675.2 -300.1,1185.6 -272.9,1927 80.7,2203.5 194.3,151.8 422.7,147 643,-13.6 110.5,-80.5 219.6,-201.2 318.5,-348.8 35.2,45.6 72,88.1 109.9,126.8 256.4,261.6 560.9,347.8 857.3,242.9 184.5,-65.3 260.2,-313.7 231.4,-759.3 -21.3,-328.6 -99.6,-768.2 -233,-1306.3 -226.1,-912.8 -536.9,-1808.4 -540,-1817.4 -9.7,-27.6 -35.6,-45 -63.3,-45"
         style="fill:#ffffff;fill-opacity:1;fill-rule:nonzero;stroke:none"
         id="path236" /><path
         d="m 14034.2,12411.2 h -2288 c -272.8,0 -493.9,221.2 -493.9,493.9 v 20.8 c 0,272.7 221.1,493.8 493.9,493.8 h 2288 c 272.8,0 493.9,-221.1 493.9,-493.8 v -20.8 c 0,-272.7 -221.1,-493.9 -493.9,-493.9"
         style="fill:#3f964f;fill-opacity:1;fill-rule:nonzero;stroke:none"
         id="path238" /><path
         d="m 17343.2,16611.7 h -857 c -122,0 -220.9,98.9 -220.9,220.9 v 0 c 0,122 98.9,220.9 220.9,220.9 h 857 c 122,0 220.9,-98.9 220.9,-220.9 v 0 c 0,-122 -98.9,-220.9 -220.9,-220.9"
         style="fill:#ffe91d;fill-opacity:1;fill-rule:nonzero;stroke:none"
         id="path240" /><path
         d="m 9294.29,16611.7 h -857.03 c -121.98,0 -220.87,98.9 -220.87,220.9 v 0 c 0,122 98.89,220.9 220.87,220.9 h 857.03 c 121.98,0 220.87,-98.9 220.87,-220.9 v 0 c 0,-122 -98.89,-220.9 -220.87,-220.9"
         style="fill:#ffe91d;fill-opacity:1;fill-rule:nonzero;stroke:none"
         id="path242" /><path
         d="m 9838.94,18425 -682.02,519 c -97.08,73.8 -115.89,212.4 -42.02,309.5 v 0 c 73.86,97.1 212.44,115.9 309.52,42 l 681.98,-519 c 97.1,-73.8 115.9,-212.4 42.1,-309.5 v 0 c -73.9,-97.1 -212.49,-115.9 -309.56,-42"
         style="fill:#ffe91d;fill-opacity:1;fill-rule:nonzero;stroke:none"
         id="path244" /><path
         d="m 15897.8,18425 682,519 c 97.1,73.8 115.9,212.4 42.1,309.5 v 0 c -73.9,97.1 -212.5,115.9 -309.6,42 l -682,-519 c -97.1,-73.8 -115.9,-212.4 -42,-309.5 v 0 c 73.9,-97.1 212.4,-115.9 309.5,-42"
         style="fill:#ffe91d;fill-opacity:1;fill-rule:nonzero;stroke:none"
         id="path246" /><path
         d="m 9838.94,14966.3 -682.02,-519 c -97.08,-73.9 -115.89,-212.4 -42.02,-309.5 v 0 c 73.86,-97.1 212.44,-115.9 309.52,-42 l 681.98,518.9 c 97.1,73.9 115.9,212.5 42.1,309.6 v 0 c -73.9,97 -212.49,115.9 -309.56,42"
         style="fill:#ffe91d;fill-opacity:1;fill-rule:nonzero;stroke:none"
         id="path248" /><path
         d="m 15897.8,14966.3 682,-519 c 97.1,-73.9 115.9,-212.4 42.1,-309.5 v 0 c -73.9,-97.1 -212.5,-115.9 -309.6,-42 l -682,518.9 c -97.1,73.9 -115.9,212.5 -42,309.6 v 0 c 73.9,97 212.4,115.9 309.5,42"
         style="fill:#ffe91d;fill-opacity:1;fill-rule:nonzero;stroke:none"
         id="path250" /><path
         d="M 13943.6,8128.9 H 13668 v 163.8 h 275.6 v -163.8"
         style="fill:#10342d;fill-opacity:1;fill-rule:nonzero;stroke:none"
         id="path252" /><path
         d="m 14246.8,5593.6 h -824.9 l -43.4,-488.9 h 926.2 l -57.9,488.9"
         style="fill:#0d5a52;fill-opacity:1;fill-rule:nonzero;stroke:none"
         id="path254" /><path
         d="m 14391.6,5008.4 c 11.1,16.4 14.9,41.4 14.9,67.8 l -108.7,116.7 h -912.5 l -108.6,-116.7 c 0,-28.2 4.3,-53 17.2,-67.8 h 1097.7"
         style="fill:#3f964f;fill-opacity:1;fill-rule:nonzero;stroke:none"
         id="path256" /><path
         d="m 13289.1,5068.8 -12.4,-12.5 c 0,-28.2 4.3,-53 17.2,-67.8 h 1097.7 c 11.1,16.4 14.9,41.4 14.9,67.8 l -10.4,12.5 h -1107"
         style="fill:#0d5a52;fill-opacity:1;fill-rule:nonzero;stroke:none"
         id="path258" /><path
         d="m 15378.9,5547.8 c 0,-45.5 -35.3,-82.4 -78.8,-82.4 h -2917 c -43.5,0 -78.8,36.9 -78.8,82.4 v 2498.8 c 0,45.4 35.3,82.3 78.8,82.3 h 2917 c 43.5,0 78.8,-36.9 78.8,-82.3 V 5547.8"
         style="fill:#3f964f;fill-opacity:1;fill-rule:nonzero;stroke:none"
         id="path260" /><path
         d="m 13940.8,5737.3 c -40.6,0 -58,37.4 -52.4,69.7 -9,3.2 -18.5,5 -28.5,5 -49.2,0 -89,-41.7 -89,-93 0,-51.4 39.8,-93.1 89,-93.1 49.1,0 88.9,41.7 88.9,93.1 0,6.4 -0.6,12.8 -1.8,18.9 -2.1,-0.2 -4,-0.6 -6.2,-0.6"
         style="fill:#0d5a52;fill-opacity:1;fill-rule:nonzero;stroke:none"
         id="path262" /><path
         d="m 13998.2,8370.3 c 0,-113.1 -87.6,-204.7 -195.8,-204.7 -108.1,0 -195.8,91.6 -195.8,204.7 0,113 87.7,204.7 195.8,204.7 108.2,0 195.8,-91.7 195.8,-204.7"
         style="fill:#0d5a52;fill-opacity:1;fill-rule:nonzero;stroke:none"
         id="path264" /><path
         d="m 13943.6,8392.8 c 0,-93.2 -72.2,-168.8 -161.4,-168.8 -89.1,0 -161.4,75.6 -161.4,168.8 0,93.1 72.3,168.7 161.4,168.7 89.2,0 161.4,-75.6 161.4,-168.7"
         style="fill:#3f964f;fill-opacity:1;fill-rule:nonzero;stroke:none"
         id="path266" /><path
         d="m 13841.9,8370.3 c 0,-48.3 -37.4,-87.5 -83.6,-87.5 -46.2,0 -83.7,39.2 -83.7,87.5 0,48.3 37.5,87.4 83.7,87.4 46.2,0 83.6,-39.1 83.6,-87.4"
         style="fill:#10342d;fill-opacity:1;fill-rule:nonzero;stroke:none"
         id="path268" /><path
         d="m 12371.1,5997.5 c 0,-43.4 33.8,-78.5 75.4,-78.5 h 2793.3 c 41.7,0 75.4,35.1 75.4,78.5 v 1991.4 c 0,43.3 -33.7,78.5 -75.4,78.5 h -2793.3 c -41.6,0 -75.4,-35.2 -75.4,-78.5 V 5997.5"
         style="fill:#0d5a52;fill-opacity:1;fill-rule:nonzero;stroke:none"
         id="path270" /><path
         d="m 12447.6,6014 h 2791.1 V 7982 H 12447.6 V 6014"
         style="fill:#ffffff;fill-opacity:1;fill-rule:nonzero;stroke:none"
         id="path272" /><path
         d="m 14802.8,6014 h 435.9 v 1968 h -435.9 V 6014"
         style="fill:#ffffff;fill-opacity:1;fill-rule:nonzero;stroke:none"
         id="path274" /><path
         d="M 14802.8,7820.4 V 6187.8 c 0,-23.5 -18.8,-42.5 -41.9,-42.5 h -2194.4 c -23.2,0 -41.9,19 -41.9,42.5 v 1632.6 c 0,23.4 18.7,42.4 41.9,42.4 h 2194.4 c 23.1,0 41.9,-19 41.9,-42.4"
         style="fill:#d4deff;fill-opacity:1;fill-rule:nonzero;stroke:none"
         id="path276" /><path
         d="m 15140.7,7616.8 c 0,-66.1 -51.3,-119.8 -114.6,-119.8 -63.2,0 -114.5,53.7 -114.5,119.8 0,66.1 51.3,119.8 114.5,119.8 63.3,0 114.6,-53.7 114.6,-119.8"
         style="fill:#d4deff;fill-opacity:1;fill-rule:nonzero;stroke:none"
         id="path278" /><path
         d="m 15206.9,7346.2 c 0,-31.4 -24.3,-56.8 -54.4,-56.8 -30,0 -54.3,25.4 -54.3,56.8 0,31.4 24.3,56.8 54.3,56.8 30.1,0 54.4,-25.4 54.4,-56.8"
         style="fill:#d4deff;fill-opacity:1;fill-rule:nonzero;stroke:none"
         id="path280" /><path
         d="m 14869.5,7346.2 c 0,-17.1 9.5,-31 21.3,-31 h 138.2 c 11.7,0 21.2,13.9 21.2,31 v 0 c 0,17.1 -9.5,31 -21.2,31 h -138.2 c -11.8,0 -21.3,-13.9 -21.3,-31 v 0"
         style="fill:#d4deff;fill-opacity:1;fill-rule:nonzero;stroke:none"
         id="path282" /><path
         d="m 15206.9,7168 c 0,-31.3 -24.3,-56.8 -54.4,-56.8 -30,0 -54.3,25.5 -54.3,56.8 0,31.4 24.3,56.9 54.3,56.9 30.1,0 54.4,-25.5 54.4,-56.9"
         style="fill:#d4deff;fill-opacity:1;fill-rule:nonzero;stroke:none"
         id="path284" /><path
         d="m 14869.5,7168 c 0,-17.1 9.5,-30.9 21.3,-30.9 h 138.2 c 11.7,0 21.2,13.8 21.2,30.9 v 0 c 0,17.2 -9.5,31 -21.2,31 h -138.2 c -11.8,0 -21.3,-13.8 -21.3,-31 v 0"
         style="fill:#d4deff;fill-opacity:1;fill-rule:nonzero;stroke:none"
         id="path286" /><path
         d="m 15206.9,6989.9 c 0,-31.4 -24.3,-56.8 -54.4,-56.8 -30,0 -54.3,25.4 -54.3,56.8 0,31.4 24.3,56.8 54.3,56.8 30.1,0 54.4,-25.4 54.4,-56.8"
         style="fill:#d4deff;fill-opacity:1;fill-rule:nonzero;stroke:none"
         id="path288" /><path
         d="m 14869.5,6986.6 c 0,-15.3 9.5,-27.7 21.3,-27.7 h 138.2 c 11.7,0 21.2,12.4 21.2,27.7 v 0 c 0,15.3 -9.5,27.7 -21.2,27.7 h -138.2 c -11.8,0 -21.3,-12.4 -21.3,-27.7 v 0"
         style="fill:#d4deff;fill-opacity:1;fill-rule:nonzero;stroke:none"
         id="path290" /><path
         d="m 15206.9,6811.7 c 0,-31.4 -24.3,-56.8 -54.4,-56.8 -30,0 -54.3,25.4 -54.3,56.8 0,31.4 24.3,56.8 54.3,56.8 30.1,0 54.4,-25.4 54.4,-56.8"
         style="fill:#d4deff;fill-opacity:1;fill-rule:nonzero;stroke:none"
         id="path292" /><path
         d="m 14869.5,6811.7 c 0,-17.1 9.5,-31 21.3,-31 h 138.2 c 11.7,0 21.2,13.9 21.2,31 v 0 c 0,17.1 -9.5,31 -21.2,31 h -138.2 c -11.8,0 -21.3,-13.9 -21.3,-31 v 0"
         style="fill:#d4deff;fill-opacity:1;fill-rule:nonzero;stroke:none"
         id="path294" /><path
         d="m 15206.9,6633.6 c 0,-31.4 -24.3,-56.9 -54.4,-56.9 -30,0 -54.3,25.5 -54.3,56.9 0,31.3 24.3,56.8 54.3,56.8 30.1,0 54.4,-25.5 54.4,-56.8"
         style="fill:#d4deff;fill-opacity:1;fill-rule:nonzero;stroke:none"
         id="path296" /><path
         d="m 14869.5,6633.6 c 0,-17.2 9.5,-31 21.3,-31 h 138.2 c 11.7,0 21.2,13.8 21.2,31 v 0 c 0,17.1 -9.5,30.9 -21.2,30.9 h -138.2 c -11.8,0 -21.3,-13.8 -21.3,-30.9 v 0"
         style="fill:#d4deff;fill-opacity:1;fill-rule:nonzero;stroke:none"
         id="path298" /><path
         d="m 15206.9,6463.1 c 0,-31.3 -24.3,-56.8 -54.4,-56.8 -30,0 -54.3,25.5 -54.3,56.8 0,31.4 24.3,56.8 54.3,56.8 30.1,0 54.4,-25.4 54.4,-56.8"
         style="fill:#d4deff;fill-opacity:1;fill-rule:nonzero;stroke:none"
         id="path300" /><path
         d="m 14869.5,6463.1 c 0,-17.1 9.5,-31 21.3,-31 h 138.2 c 11.7,0 21.2,13.9 21.2,31 v 0 c 0,17.1 -9.5,31 -21.2,31 h -138.2 c -11.8,0 -21.3,-13.9 -21.3,-31 v 0"
         style="fill:#d4deff;fill-opacity:1;fill-rule:nonzero;stroke:none"
         id="path302" /><path
         d="m 15060.2,7559.4 c 10.9,-4.9 16.2,-25 16.2,-37.1 l 0.8,-13.2 c -15.7,-8.3 -33.3,-13.2 -52.1,-13.2 -16.9,0 -32.9,4 -47.3,10.8 l 0.5,24.1 c 0.1,6.3 3.2,21.4 14.8,28.1 6,3.4 14.6,6.4 21.9,7.6 -0.2,0.3 -0.4,0.6 -0.3,1 l 1.3,13.1 c -15.4,5.6 -31.9,20.9 -34.8,44.2 l -1.2,26 c -0.1,27.2 21.9,46.9 47.4,47 25.5,0.1 47.5,-20.9 47.6,-48.1 l -2.8,-26.9 c -3.1,-24.7 -18.6,-39.3 -33.1,-44.3 l 0.8,-12 c 6.8,-0.7 13.5,-4.1 20.3,-7.1"
         style="fill:#494c7f;fill-opacity:1;fill-rule:nonzero;stroke:none"
         id="path304" /><path
         d="m 14802.8,6452.4 v -307.1 h -1828.3 c 13.9,186.3 60.4,314.3 115.7,418.4 116.5,218.8 272.4,331.9 248.9,657.5 -8.8,122.4 -143.6,272.8 33.4,436.9 162,150.1 267,71.4 267,71.4 0,0 101.6,98.9 260.8,84.5 220.9,-19.9 342.4,-165.4 415.6,-398.2 70.9,-225.4 -142.4,-342.2 158.4,-503.8 130,-69.9 273.1,-246.1 328.5,-459.6"
         style="fill:#2c2858;fill-opacity:1;fill-rule:nonzero;stroke:none"
         id="path306" /><path
         d="m 12681.7,7054.2 c 14.4,-69.5 74,-160.9 74,-160.9 l 104.6,29 6.2,43.1 c 0,0 53.2,40.1 42.1,130.4 -11,89.3 -42.6,103.6 -42.6,103.6 0,0 -17.2,-12.8 1.9,-77.2 -9.5,-32.6 -19.1,-39.1 -19.1,-39.1 l -11.3,46.9 c 0,0 -8,45.9 -12.4,95.1 9.3,38.3 20.7,93.1 -5,98.5 -8.4,-17.6 -16.8,-43.9 -24.4,-85.4 -2.2,-21 -1.1,-55.6 -1.1,-84.3 -5.1,24.2 -10.8,54.6 -12.7,81.1 16.6,58.9 23.1,117.2 -1.8,110.1 -5,-17.1 -22.9,-64.5 -28.6,-106.4 -1.1,-41.6 -0.8,-77.1 -1,-84.6 -13.9,34.2 -13.4,54.5 -14.5,74.3 3.7,32.1 10,64.8 5.9,82.4 -3.7,16.4 -12.9,30.1 -20.6,4.3 -5,-16.6 -17.4,-57.3 -18.3,-86.1 -0.8,-24.9 1.4,-55.9 9.3,-89.9 -39.6,73.4 -12,120 -37.6,130.2 -7.6,-10.3 -16.7,-43 -14,-79.4 3.4,-45.5 14.9,-106.5 21,-135.7"
         style="fill:#f37a50;fill-opacity:1;fill-rule:nonzero;stroke:none"
         id="path308" /><path
         d="m 12843.8,7080 c 0,0 -70,2.7 -50.8,-98.8 -17,24.9 -43.5,116.9 50.8,98.8"
         style="fill:#de623c;fill-opacity:1;fill-rule:nonzero;stroke:none"
         id="path310" /><path
         d="m 14802.8,6186.6 v -41.3 h -1828.3 c 0,-0.1 0,-0.2 0,-0.4 -0.3,0.1 -0.5,0.3 -0.7,0.4 -285.5,183.7 -237.1,613.4 -237.1,748 0,0 1,0.6 2.9,1.7 11.5,6.6 56.4,29.8 129,35.8 h 0.1 c 1.5,0.2 3,0.3 4.5,0.4 98.9,-140.4 178.1,-289.9 217,-367.5 16.9,-33.5 26.2,-53.6 26.2,-53.6 0,0 346.7,244 549.2,308.6 140.2,44.7 409.6,-4.9 409.6,-4.9 0,0 206.5,-60.6 308.8,-146.9 149.5,-126.2 280.2,-282.3 418.8,-480.3"
         style="fill:#ffa1b8;fill-opacity:1;fill-rule:nonzero;stroke:none"
         id="path312" /><path
         d="m 13992.4,7148.2 6.2,-342.1 c 0,0 -32.4,-72.6 -128,-71.4 -55.4,0.7 -92.8,79.1 -92.8,79.1 l -7.1,182.1 221.7,152.3"
         style="fill:#f37a50;fill-opacity:1;fill-rule:nonzero;stroke:none"
         id="path314" /><path
         d="m 13986.2,7333 c 48.1,-222.4 -47.2,-386.2 -212.3,-430.5 -121.1,-32.4 -287,102 -328.1,295.6 -3.3,15.9 -0.9,52.8 -3.5,68.1 -28.8,171.6 -2.5,305.7 190.7,342.1 208.9,39.4 311.4,-81.8 353.2,-275.3"
         style="fill:#f37a50;fill-opacity:1;fill-rule:nonzero;stroke:none"
         id="path316" /><path
         d="m 13776.5,7086 -173.8,-32.9 c -9.5,-1.8 -11.5,-14.5 -3,-19.1 27.7,-15.1 61.7,-37.6 98.8,-29.8 37.7,7.8 76.2,44.3 88.9,66.6 4.3,7.6 -2.2,16.8 -10.9,15.2"
         style="fill:#ffffff;fill-opacity:1;fill-rule:nonzero;stroke:none"
         id="path318" /><path
         d="m 13951.8,7313.2 c -4.2,-56.2 18.1,-103.7 49.9,-106.1 31.7,-2.4 60.9,41.2 65.2,97.4 4.2,56.2 -18.1,103.7 -49.9,106.1 -31.7,2.4 -60.9,-41.2 -65.2,-97.4"
         style="fill:#f37a50;fill-opacity:1;fill-rule:nonzero;stroke:none"
         id="path320" /><path
         d="m 14001.6,7265.8 c -3.5,0 -6.6,2.7 -6.9,6.4 -0.5,6.8 -7.9,24.2 -7,32.7 4.3,42.1 44.9,40.2 46.3,40.5 3.8,0.8 7.5,-1.5 8.3,-5.3 0.8,-3.7 -1.6,-7.4 -5.3,-8.3 -1.1,-0.2 -24.6,-6.1 -27.9,-37.9 -0.8,-7.7 -1,-14.6 -0.5,-20.6 0.3,-3.9 -2.6,-7.2 -6.4,-7.5 -0.2,0 -0.4,0 -0.6,0"
         style="fill:#de623c;fill-opacity:1;fill-rule:nonzero;stroke:none"
         id="path322" /><path
         d="m 13422.1,6406.1 c -3.6,-17.7 -51.3,-152.4 -64.4,-223.4 v 0 c -1.5,-8.5 -2.6,-16.1 -3,-22.5 -0.3,-4.5 -0.3,-9.5 -0.1,-14.9 h -65 c 24.7,94.3 70.8,210.7 132.5,260.8"
         style="fill:#f584a0;fill-opacity:1;fill-rule:nonzero;stroke:none"
         id="path324" /><path
         d="m 13819.7,7386.4 -77.6,3.7 c -9.9,0.5 -17.6,8.9 -17.1,18.9 v 0 c 0.5,9.9 8.9,17.6 18.8,17.1 l 77.6,-3.7 c 9.9,-0.5 17.6,-9 17.1,-18.9 v 0 c -0.5,-9.9 -8.9,-17.6 -18.8,-17.1"
         style="fill:#2c2858;fill-opacity:1;fill-rule:nonzero;stroke:none"
         id="path326" /><path
         d="m 13529.2,7346.4 -68.9,-21.3 c -9.2,-2.8 -19,2.3 -21.8,11.6 l -0.4,1 c -2.8,9.2 2.4,19 11.6,21.9 l 68.8,21.3 c 9.3,2.8 19.1,-2.3 21.9,-11.6 l 0.3,-1 c 2.9,-9.2 -2.3,-19 -11.5,-21.9"
         style="fill:#2c2858;fill-opacity:1;fill-rule:nonzero;stroke:none"
         id="path328" /><path
         d="m 13601.2,7176.9 c 9.2,-22.2 51.6,-43.2 94,-35.8 2,0.4 3.1,-2.4 1.3,-3.5 -43.3,-27.5 -72.1,-20.3 -91.3,-1.4 -12.5,12.3 -11.9,28.9 -9.5,40.1 0.6,2.7 4.4,3.2 5.5,0.6"
         style="fill:#bf5434;fill-opacity:1;fill-rule:nonzero;stroke:none"
         id="path330" /><path
         d="m 13746.6,7304.4 c -1.4,-19.4 13.1,-36.3 32.5,-37.8 19.4,-1.5 36.3,13.1 37.8,32.5 1.4,19.4 -13.1,36.3 -32.5,37.8 -19.4,1.4 -36.3,-13.1 -37.8,-32.5"
         style="fill:#000000;fill-opacity:1;fill-rule:nonzero;stroke:none"
         id="path332" /><path
         d="m 13784.4,7336.9 c -31.7,1.2 -52.8,-15 -72,8 10.6,-32.6 45.1,-31.7 45.1,-31.7 l 26.9,23.7"
         style="fill:#000000;fill-opacity:1;fill-rule:nonzero;stroke:none"
         id="path334" /><path
         d="m 13485,7262.7 c -1.4,-18.7 12.6,-35.1 31.4,-36.5 18.7,-1.4 35.1,12.6 36.5,31.4 1.4,18.7 -12.6,35.1 -31.4,36.5 -18.7,1.4 -35.1,-12.6 -36.5,-31.4"
         style="fill:#000000;fill-opacity:1;fill-rule:nonzero;stroke:none"
         id="path336" /><path
         d="m 13518.9,7294.2 c -31.7,1.2 -52.8,-15 -71.9,7.9 10.5,-32.5 45,-31.6 45,-31.6 l 26.9,23.7"
         style="fill:#000000;fill-opacity:1;fill-rule:nonzero;stroke:none"
         id="path338" /><path
         d="m 13505.1,7580.5 c -36.4,-35.9 144.4,-164.6 477.7,-135.9 98.1,8.5 -284.6,326.5 -477.7,135.9"
         style="fill:#2c2858;fill-opacity:1;fill-rule:nonzero;stroke:none"
         id="path340" /><path
         d="m 17290.9,890.102 -313.5,-76 -124.8,279.798 c 13.4,9.7 35.8,194.5 49.8,335.3 l 503.9,-74.8 c -26.2,-141.9 -69.8,-327.4 -115.4,-464.298"
         style="fill:#f37a50;fill-opacity:1;fill-rule:nonzero;stroke:none"
         id="path342" /><path
         d="m 16737.5,731.602 c 0,0 -106.2,182.898 -243.1,195.699 0,0 -258.6,-12.102 -350.4,-119.899 -28.8,-33.8 -18.6,-106.8 -7.9,-153.5 6.8,-29.203 31.1,-61.101 107.3,-85.902 112.5,-36.699 264.4,-60 545.6,9.801 337.2,83.699 390.5,47.199 515.2,86 129.3,40.199 89.5,198.097 56,351.799 0,0 -95.7,-186.698 -622.7,-283.998"
         style="fill:#2c2858;fill-opacity:1;fill-rule:nonzero;stroke:none"
         id="path344" /><path
         d="m 16844.4,1121.2 c 0,0 -151,-89.4 -347.8,-132.399 -110.1,-24.102 -403.4,-77.899 -358.2,-273.5 6.7,-29.199 31.1,-61.098 107.2,-85.903 112.5,-36.597 264.4,-60 545.6,9.805 337.2,83.699 390.5,47.297 515.2,85.996 129.3,40.203 71.7,219.602 38.1,373.301 v 0 c -3.5,-38.9 -22.6,-140.898 -257.3,-229.898 -70,-26.602 -9.8,280.398 -242.8,252.598"
         style="fill:#4364cc;fill-opacity:1;fill-rule:nonzero;stroke:none"
         id="path346" /><path
         d="m 18506.9,832.199 -307.3,-97.898 -144.2,270.299 c 12.7,10.6 22,196.6 26.1,338 l 507.8,-39.2 c -16.1,-143.4 -46.6,-331.4 -82.4,-471.201"
         style="fill:#f37a50;fill-opacity:1;fill-rule:nonzero;stroke:none"
         id="path348" /><path
         d="m 19055.1,4240.8 c -699.6,-120.3 -1695.9,-562.4 -1794.8,-664.2 -204.3,-210.5 -275.9,-943.2 -384.6,-2244.1 l 556.3,-42.9 c 236.1,1014.7 472.3,1454.5 511.2,1867.2 0,0 535.2,-42.6 1344.2,260 398.8,149.2 814.6,323.8 699.1,683.9 -92,286.9 -264.3,254.9 -931.4,140.1"
         style="fill:#8a284c;fill-opacity:1;fill-rule:nonzero;stroke:none"
         id="path350" /><path
         d="m 19819.8,4245.3 c -580.8,-54 -1361.4,-709.8 -1460.3,-811.7 -204.2,-210.4 -180.9,-940.3 -289.6,-2241.3 l 525.2,-40.5 c 105.4,673.5 427.3,1425.8 431.6,1921.1 0,0 570.5,40.1 1379.5,342.8 398.8,149.2 788.4,101.2 729.5,555.7 -38.6,298.7 -642,336.5 -1315.9,273.9"
         style="fill:#e62552;fill-opacity:1;fill-rule:nonzero;stroke:none"
         id="path352" /><path
         d="m 18167.3,6547.3 c 146.7,148.1 50.5,299.9 50.5,299.9 80.5,17.3 505.4,-626.3 688.6,-1035.3 319.5,322.1 882.6,757 1034.9,782.4 0,0 205.4,55.2 279.2,-193.1 65.9,-221.7 -191.1,-378.8 -191.1,-378.8 0,0 -1099,-775.9 -1261.6,-707 -252.9,107.4 -481.8,1030.9 -600.5,1231.9"
         style="fill:#f37a50;fill-opacity:1;fill-rule:nonzero;stroke:none"
         id="path354" /><path
         d="m 17937.8,6565.7 c 89.7,-5.5 200.6,38.8 235.1,-41.6 l 177,86.3 10.8,106.8 c -152.1,243.7 -522.9,312.8 -559.6,316.1 -95.4,8.3 -139.6,18.2 -147.1,5.4 -7.4,-12.7 -30.8,-97.6 107.6,-114.3 173.6,-20.8 58.3,-159.7 -294,-27.5 -88.2,33.1 -254.2,-9.9 -194.1,-74.3 66.1,-71.1 256.2,-232.1 664.3,-256.9"
         style="fill:#f37a50;fill-opacity:1;fill-rule:nonzero;stroke:none"
         id="path356" /><path
         d="m 19888.4,6412.9 c -273.5,38 -708.5,155.4 -525,576.9 183.5,421.5 210.6,260.2 22.7,685.3 -188,425.1 54.4,842 374.7,817.2 320.4,-24.8 449,-252.6 805.6,-112.7 356.7,140 737.1,-140.9 661.3,-470.2 -75.8,-329.2 -104.7,-486.2 60.5,-624.7 165.2,-138.5 789.4,-193.3 628.9,-642.6 -160.5,-449.4 -277.8,-448.7 -149.7,-634.6 128,-185.8 -18.9,-459.3 -365.5,-499.5 -346.7,-40.1 -681.5,23.3 -886.4,376.6 -204.9,353.2 -627.1,528.3 -627.1,528.3"
         style="fill:#2c2858;fill-opacity:1;fill-rule:nonzero;stroke:none"
         id="path358" /><path
         d="m 19303.2,6253.3 c 231.8,140.3 615.4,533.3 907.1,416.9 291.7,-116.4 192.7,-469.2 53.1,-615 -139.6,-145.8 -573,-479.6 -573,-479.6 l -387.2,677.7"
         style="fill:#3f964f;fill-opacity:1;fill-rule:nonzero;stroke:none"
         id="path360" /><path
         d="m 21198.2,4088.7 c -129.8,669.9 -98,668.4 -152,983.6 -133.3,779.1 552.9,1404.5 -450.1,1713.2 l -444.2,-98.3 c -426.8,-210.8 -510.3,-589.7 -552.3,-848.3 -80.1,-492.2 -10.1,-1227 -10.1,-1227 l -167.9,-419.6 c 0,0 116.5,-116.9 668.7,-221.2 552.1,-104.3 1107.9,117.6 1107.9,117.6"
         style="fill:#0e6a41;fill-opacity:1;fill-rule:nonzero;stroke:none"
         id="path362" /><path
         d="m 21300,6078.4 c 106.5,-394.6 118,-1699.3 27.6,-1816.3 l -457.6,253.8 c 0,0 -211.9,1358.3 -236.2,1585.5 -42.8,393.2 493.4,621.5 666.2,-23"
         style="fill:#f37a50;fill-opacity:1;fill-rule:nonzero;stroke:none"
         id="path364" /><path
         d="m 20625.5,5456.1 c -42.5,299.8 -99.2,873.1 152.5,1060.9 251.7,187.9 492.6,-41 544,-236.2 51.4,-195.2 109.5,-739.2 109.5,-739.2 l -806,-85.5"
         style="fill:#3f964f;fill-opacity:1;fill-rule:nonzero;stroke:none"
         id="path366" /><path
         d="m 20772.2,7456.3 c -9.4,-354.2 -242.6,-635.3 -520.7,-627.8 -278.2,7.4 -496,300.5 -486.6,654.7 9.5,354.1 242.7,635.2 520.8,627.8 278.2,-7.4 496,-300.6 486.5,-654.7"
         style="fill:#f37a50;fill-opacity:1;fill-rule:nonzero;stroke:none"
         id="path368" /><path
         d="m 20681.5,7251.6 -382.3,-365.7 c 0,0 2,-202.7 -4.1,-269.9 -12.7,-138.7 153.4,-163 266.5,-54.5 113.1,108.6 123.4,224 123.4,224 l -3.5,466.1"
         style="fill:#f37a50;fill-opacity:1;fill-rule:nonzero;stroke:none"
         id="path370" /><path
         d="m 19707.5,7605.5 c 127.3,15.7 393.5,94.6 467.6,232.7 120.7,-223 467.9,-386.1 738,-439.9 -41.7,246.1 -138.4,694.6 -615.3,788.7 -374.6,73.9 -590.3,-581.5 -590.3,-581.5"
         style="fill:#2c2858;fill-opacity:1;fill-rule:nonzero;stroke:none"
         id="path372" /><path
         d="m 19901.8,7402.7 c -6.7,-25.9 -33.1,-41.4 -59,-34.7 -25.8,6.7 -41.3,33.1 -34.6,59 6.7,25.8 33.1,41.4 59,34.7 25.8,-6.8 41.3,-33.2 34.6,-59"
         style="fill:#000000;fill-opacity:1;fill-rule:nonzero;stroke:none"
         id="path374" /><path
         d="m 20299,7407.7 c -7.3,-28 -35.9,-44.8 -63.9,-37.5 -28,7.2 -44.8,35.8 -37.5,63.8 7.2,28 35.8,44.8 63.8,37.6 28,-7.3 44.9,-35.9 37.6,-63.9"
         style="fill:#000000;fill-opacity:1;fill-rule:nonzero;stroke:none"
         id="path376" /><path
         d="m 20346.7,7462.1 c -3.9,1 -7.4,3.3 -10,6.8 -37.4,49.9 -109.1,46.1 -109.8,46 -10,-0.6 -18.7,7 -19.3,17 -0.7,10 6.8,18.7 16.9,19.4 3.7,0.2 91.9,5.4 141.4,-60.6 6,-8.1 4.3,-19.5 -3.7,-25.5 -4.6,-3.5 -10.3,-4.4 -15.5,-3.1"
         style="fill:#2c2858;fill-opacity:1;fill-rule:nonzero;stroke:none"
         id="path378" /><path
         d="m 19790,7467.6 c -1.9,0.5 -3.8,1.4 -5.5,2.5 -8.4,5.5 -10.7,16.8 -5.2,25.2 43.1,65.2 114.8,57.1 117.8,56.7 10,-1.2 17.1,-10.3 15.8,-20.3 -1.2,-9.9 -10.3,-17 -20.2,-15.8 -2.4,0.2 -52.7,5.2 -82.9,-40.6 -4.4,-6.7 -12.5,-9.5 -19.8,-7.7"
         style="fill:#2c2858;fill-opacity:1;fill-rule:nonzero;stroke:none"
         id="path380" /><path
         d="m 19959.9,7324.3 c -20.3,-32.2 -37.2,-64.5 -58.7,-85.4 -7.3,-7 -7.6,-18.7 -0.9,-26.3 27.5,-31.3 92.2,-48.2 131.3,-55.9 5.7,-1.1 8.5,6.7 3.5,9.5 -43,24.1 -63.5,44.2 -72.7,55.7 -4.6,5.7 -6.1,13.2 -4.2,20.3 4.3,16.2 12.8,49.2 17.5,76.1 1.7,9.3 -10.7,14 -15.8,6"
         style="fill:#de623c;fill-opacity:1;fill-rule:nonzero;stroke:none"
         id="path382" /><path
         d="m 20645.3,7427.2 c -53.8,-63.6 -55.1,-150.9 -3,-194.9 52.1,-44 137.9,-28.1 191.6,35.6 53.8,63.6 55.1,150.9 3,194.9 -52.1,44 -137.9,28 -191.6,-35.6"
         style="fill:#f37a50;fill-opacity:1;fill-rule:nonzero;stroke:none"
         id="path384" /><path
         d="m 20718,7264.3 c -2.7,0.7 -5.2,2 -7.4,3.9 -31.6,27.6 -41.8,64.1 -27.1,97.4 15,34.2 51.7,56.2 87.3,52.2 10,-1.1 17.2,-10.1 16.1,-20.1 -1.2,-10 -10.2,-17.2 -20.2,-16.1 -19.4,2.2 -41.3,-11.3 -49.8,-30.6 -8.2,-18.6 -1.9,-38.3 17.7,-55.4 7.5,-6.6 8.3,-18.1 1.7,-25.7 -4.7,-5.3 -11.8,-7.3 -18.3,-5.6"
         style="fill:#de623c;fill-opacity:1;fill-rule:nonzero;stroke:none"
         id="path386" /><path
         d="m 20904.4,4553.1 c 132.1,41.9 438.3,-245 427.6,-292.2 -393.1,-721.2 -1400.4,-1017.3 -1400.4,-1017.3 l -176,133 c 0,0 678.3,571.1 1148.8,1176.5"
         style="fill:#f37a50;fill-opacity:1;fill-rule:nonzero;stroke:none"
         id="path388" /><path
         d="m 19931.6,3243.6 c -19.6,-188.1 -299.8,-433.2 -544.9,-450.8 -245.2,-17.5 -166.4,218.9 -70.1,280.2 96.3,61.3 235,122.3 200.7,170.6 -34.3,48.3 -95.7,35.6 -139.4,92.1 -39,50.4 151.9,149.9 377.7,40.9 76,-57.4 176,-133 176,-133"
         style="fill:#f37a50;fill-opacity:1;fill-rule:nonzero;stroke:none"
         id="path390" /><path
         d="m 20131.6,7046.9 c 7.1,-33.6 -16.9,-67.2 -53.7,-74.9 -36.7,-7.8 -72.2,13.2 -79.3,46.8 -7.1,33.6 16.9,67.1 53.6,74.9 36.7,7.8 72.3,-13.2 79.4,-46.8"
         style="fill:#ffffff;fill-opacity:1;fill-rule:nonzero;stroke:none"
         id="path392" /><path
         d="m 17966,635.199 c 0,0 -118.8,174.903 -256.2,178.102 0,0 -257.1,-30.301 -341.1,-144.301 -26.4,-35.801 -11.1,-107.801 3,-153.699 8.7,-28.699 35.3,-58.699 113,-78.102 114.8,-28.699 268,-41.297 543.5,48.102 330.5,107.199 386.3,74.601 507.9,122.101 126.2,49.2 75.4,203.899 31.1,354.899 0,0 -82.3,-193 -601.2,-327.102"
         style="fill:#2c2858;fill-opacity:1;fill-rule:nonzero;stroke:none"
         id="path394" /><path
         d="m 18045.3,1031.3 c 0,0 -144.4,-99.8 -337.6,-156.601 -108.1,-31.699 -396.9,-106 -338.2,-297.996 8.8,-28.601 35.3,-58.703 113.1,-78.101 114.7,-28.7 268,-41.2 543.5,48.199 330.5,107.199 386.2,74.601 507.9,122 126.1,49.199 56.1,224.101 11.8,374.999 v 0 c -0.9,-39 -12.7,-142.097 -240.5,-247.398 -68,-31.5 -29.6,278.998 -260,234.898"
         style="fill:#4364cc;fill-opacity:1;fill-rule:nonzero;stroke:none"
         id="path396" /><path
         d="m 9302.11,10039.9 c -289.27,-71.1 -489.1,284.8 -489.1,284.8 -183.5,7.5 -175.31,190.4 -175.31,190.4 -88.55,15.6 -213.54,93.1 -197.07,260.4 13.95,141.7 149.93,151.9 147.38,315.5 -2.04,131.3 -134.26,437.3 276.18,512.9 0,0 -19.57,242 221.67,330.3 295.77,108.1 393.67,-65.6 531.19,-81.9 153.59,-18.3 457.25,158.4 541.65,-181.6 0,0 213.4,21.4 330.4,-121.5 108.9,-133 78.3,-324 25.4,-399.4 0,0 177.8,-37.1 237,-193.9 39.7,-105.2 14.7,-250.5 -84.9,-331.8 -63.3,-51.7 -128.1,-63.8 -128.1,-63.8 -68.3,-20 -49.6,-207.2 -106.5,-250.8 -91.5,-70.1 -193.5,-124.1 -298.4,-169.9 l -831.49,-99.7"
         style="fill:#2c2858;fill-opacity:1;fill-rule:nonzero;stroke:none"
         id="path398" /><path
         d="m 10342,10896.3 c 96.5,-502.1 -128.1,-967.3 -501.66,-1039.1 -373.51,-71.7 -754.51,277.2 -850.96,779.3 -96.46,502.1 164.27,866.3 537.78,938.1 373.52,71.7 718.44,-176.2 814.84,-678.3"
         style="fill:#f37a50;fill-opacity:1;fill-rule:nonzero;stroke:none"
         id="path400" /><path
         d="m 9418.45,10517.7 c -39.7,-7.6 -78.05,18.4 -85.68,58.1 -7.63,39.7 18.37,78.1 58.06,85.7 39.7,7.6 78.07,-18.4 85.69,-58.1 7.63,-39.7 -18.37,-78 -58.07,-85.7"
         style="fill:#000000;fill-opacity:1;fill-rule:nonzero;stroke:none"
         id="path402" /><path
         d="m 9991.29,10627.8 c -39.69,-7.6 -78.05,18.4 -85.68,58.1 -7.62,39.7 18.37,78 58.07,85.6 39.72,7.7 78.02,-18.3 85.72,-58 7.6,-39.7 -18.4,-78.1 -58.11,-85.7"
         style="fill:#000000;fill-opacity:1;fill-rule:nonzero;stroke:none"
         id="path404" /><path
         d="m 9778.58,10563.6 c 105.85,-49.2 140.13,-71.1 180.3,-86.6 -8.84,-87.7 -131.1,-153.9 -169.96,-151.5 82.09,62.1 83.22,125.1 83.22,125.1 l -93.56,113"
         style="fill:#de623c;fill-opacity:1;fill-rule:nonzero;stroke:none"
         id="path406" /><path
         d="m 9121.37,10568.3 c 83.34,-96.3 93.04,-224.5 21.68,-286.2 -71.37,-61.8 -196.78,-33.8 -280.12,62.5 -83.34,96.3 -93.04,224.4 -21.68,286.2 71.37,61.8 196.78,33.8 280.12,-62.5"
         style="fill:#f37a50;fill-opacity:1;fill-rule:nonzero;stroke:none"
         id="path408" /><path
         d="m 9076.61,10360.6 c -2.99,-0.6 -6.13,-0.6 -9.29,0.1 -12.66,2.7 -20.74,15.2 -18.05,27.8 8.96,42.1 3.32,73.4 -16.76,93.3 -31,30.5 -90.3,30.5 -131.57,21.1 -12.61,-2.9 -25.18,5 -28.03,17.7 -2.87,12.6 5.04,25.1 17.66,28 55.4,12.6 130.43,10.4 174.86,-33.5 22.14,-21.8 45.25,-63.2 29.69,-136.3 -2.02,-9.5 -9.54,-16.5 -18.51,-18.2"
         style="fill:#de623c;fill-opacity:1;fill-rule:nonzero;stroke:none"
         id="path410" /><path
         d="m 8705.57,10967.4 722.25,775.3 967.18,-330 -17.9,-666 c -66.1,297 -236.2,173.7 -343.8,247.9 -109.16,75.1 -171.06,208.1 -380.08,52.7 0,0 -202.18,100.2 -270.92,-91.9 -53.15,-148.5 -156.1,-136.3 -253.83,-157.7 -115.27,-25.3 -71.26,-134.5 -142.97,-141.1 l -279.93,310.8"
         style="fill:#2c2858;fill-opacity:1;fill-rule:nonzero;stroke:none"
         id="path412" /><path
         d="m 10060.2,10813 c -105.32,-13.1 -170.36,44 -173.45,46.8 -13.38,12 -14.47,32.6 -2.44,46 11.98,13.3 32.47,14.5 45.86,2.6 2.96,-2.5 62.47,-52.4 159.03,-22.7 17.2,5.3 35.4,-4.4 40.7,-21.6 5.3,-17.2 -4.3,-35.4 -21.5,-40.7 -16.9,-5.2 -32.9,-8.5 -48.2,-10.4"
         style="fill:#2c2858;fill-opacity:1;fill-rule:nonzero;stroke:none"
         id="path414" /><path
         d="m 9290.31,10717.8 c 105.36,13 154.54,84.2 156.86,87.6 10.05,15 6.09,35.2 -8.84,45.3 -14.87,10 -35.01,6.1 -45.11,-8.7 -2.25,-3.2 -47.81,-66.1 -148.7,-60.8 -17.98,1 -33.32,-12.8 -34.26,-30.8 -0.95,-18 12.86,-33.3 30.83,-34.3 17.6,-0.9 34,-0.2 49.22,1.7"
         style="fill:#2c2858;fill-opacity:1;fill-rule:nonzero;stroke:none"
         id="path416" /><path
         d="m 9970.64,10158.7 c 6.8,-55 -46.75,-106.8 -119.61,-115.8 -72.86,-9 -137.43,28.2 -144.23,83.2 -6.8,55 46.75,106.8 119.61,115.8 72.86,9 137.43,-28.2 144.23,-83.2"
         style="fill:#ffffff;fill-opacity:1;fill-rule:nonzero;stroke:none"
         id="path418" /></g></g></svg>
